<?xml version="1.0" encoding="utf-8"?>
<!-- Generator: Adobe Illustrator 28.0.0, SVG Export Plug-In . SVG Version: 6.00 Build 0)  -->
<svg version="1.1" id="Layer_1" xmlns="http://www.w3.org/2000/svg" xmlns:xlink="http://www.w3.org/1999/xlink" x="0px" y="0px"
	 viewBox="0 0 100 100" style="enable-background:new 0 0 100 100;" xml:space="preserve">
<style type="text/css">
	.st0{fill:#564236;}
	.st1{fill:#3E2A22;}
	.st2{fill:#D16E3B;}
	.st3{fill:#EDDB53;}
	.st4{fill:#D83E40;}
	.st5{fill:#191919;}
	.st6{fill:#F3A6A6;}
	.st7{fill:#DE2728;}
	.st8{fill:#F8F4F3;}
</style>
<path class="st0" d="M76.1,88.81c-1.41,0.67-2.81,1.35-4.22,2.02c-3.63-0.53-7.38-0.86-9.13-4.89c0.07-0.11,0.13-0.22,0.2-0.34
	c0.1-0.08,0.2-0.15,0.3-0.23c0.82-0.42,1.64-0.83,2.46-1.25c0.39-0.18,0.78-0.36,1.17-0.54c0.19-0.1,0.39-0.21,0.58-0.31
	c0.98-0.66-0.16-0.67-0.3-0.99c-0.22-0.23-0.45-0.46-0.67-0.7c-0.26-0.27-0.52-0.54-0.78-0.8c-0.11-0.16-0.21-0.33-0.32-0.49
	l0.01-0.06l-0.06-0.02c-0.12-0.19-0.25-0.38-0.37-0.57c-0.07-0.06-0.13-0.13-0.2-0.19c-0.4-1.27-0.79-2.54-1.19-3.81
	c0-0.27-0.01-0.53-0.01-0.8c0.15-0.03,0.3-0.06,0.44-0.08c0.51,0.34,1.02,0.69,1.54,1.03c0.12,0.09,0.24,0.18,0.37,0.27l0.05,0.02
	c0.69,0.26,1.38,0.52,2.07,0.78c0.13,0.03,0.25,0.07,0.38,0.1c0.57,0.16,1.15,0.32,1.72,0.48c0.7,0.01,1.4,0.03,2.1,0.04
	c0.5-0.14,0.99-0.27,1.49-0.41c0.21-0.09,0.42-0.18,0.63-0.27c0.24-0.12,0.47-0.23,0.71-0.35l0.05-0.01
	c0.44-0.34,0.89-0.68,1.33-1.01c0.32-0.24,0.64-0.48,0.95-0.72c-0.24,1.01-0.49,2.01-0.73,3.02c0,0.32,0,0.63,0,0.95
	C76,82.02,75.94,85.41,76.1,88.81z"/>
<path class="st1" d="M69.48,93.21c-2.37,2.41-5.63,2.78-8.65,3.49c-11.58,2.72-22.69,1.26-33.23-4.3c0.95-0.43,1.9-0.85,2.84-1.28
	c0.47,0.22,0.95,0.45,1.42,0.67c0.14,0.05,0.28,0.11,0.43,0.16c0.18,0.06,0.35,0.12,0.53,0.19c0.64,0.28,1.28,0.57,1.92,0.85
	c0.12,0.03,0.25,0.07,0.37,0.1c0.26,0.1,0.51,0.2,0.77,0.3c0.32,0.09,0.64,0.17,0.95,0.26c0.1,0.06,0.21,0.11,0.31,0.17
	c0.28,0.09,0.56,0.17,0.83,0.26c0.32,0.09,0.64,0.18,0.96,0.28c0.25,0.08,0.51,0.16,0.76,0.24c0.4,0.14,0.79,0.28,1.19,0.42
	c0.5,0.14,0.99,0.28,1.49,0.41c0.13,0.02,0.26,0.04,0.39,0.06c0.13,0.04,0.25,0.07,0.38,0.11c0.51,0.09,1.03,0.17,1.54,0.26
	c0.12,0.03,0.25,0.05,0.37,0.08c0.26,0.03,0.52,0.07,0.78,0.1c0.19,0.04,0.37,0.08,0.56,0.12c0.32,0.03,0.64,0.06,0.97,0.08
	c0.25,0.04,0.5,0.09,0.76,0.13c0.13,0.02,0.26,0.05,0.39,0.07c0.57,0,1.14,0,1.7,0c0.19-0.03,0.39-0.06,0.58-0.09
	c0.32-0.04,0.63-0.07,0.95-0.11c0.19-0.03,0.39-0.06,0.58-0.09c0.19-0.05,0.37-0.09,0.56-0.14c0.13-0.02,0.27-0.04,0.4-0.06
	c0.13-0.03,0.25-0.06,0.38-0.08c0.19-0.07,0.39-0.14,0.58-0.21c0.35-0.11,0.7-0.21,1.05-0.32c0.16-0.05,0.32-0.1,0.48-0.15
	c0.18-0.06,0.36-0.13,0.53-0.19c0.08-0.05,0.16-0.09,0.23-0.14c0.34-0.16,0.69-0.32,1.03-0.48c0.1-0.04,0.2-0.08,0.3-0.12
	c0.19-0.1,0.38-0.2,0.57-0.3c0.19-0.1,0.38-0.19,0.58-0.29c0.15-0.08,0.3-0.16,0.45-0.24c0.1-0.04,0.21-0.09,0.31-0.13
	c0.16-0.08,0.33-0.16,0.49-0.24c0.15-0.09,0.31-0.18,0.46-0.27c0.17-0.1,0.34-0.2,0.51-0.3c0.48-0.38,0.96-0.76,1.44-1.15
	c0.54-0.39,1.07-0.79,1.61-1.18C66.03,91.19,67.75,92.2,69.48,93.21z"/>
<path class="st2" d="M30.45,91.12c-0.95,0.43-1.9,0.85-2.84,1.28c-0.57-0.35-1.13-0.69-1.7-1.04c1.99-2.02,3.98-4.03,5.96-6.05
	c1.66,0.73,3.32,1.46,4.97,2.2c0.22,0.1,0.38,0.31,0.57,0.46c-0.2,0.13-0.38,0.29-0.6,0.38C34.69,89.29,32.57,90.2,30.45,91.12z"/>
<path class="st3" d="M31.87,85.31c-1.99,2.02-3.98,4.03-5.96,6.05c-1.92-1.31-3.83-2.62-5.75-3.93c3.83,0.09,7.6-0.06,10.8-2.59
	C31.26,85,31.56,85.16,31.87,85.31z"/>
<path class="st2" d="M69.48,93.21c-1.72-1.01-3.45-2.03-5.17-3.04c-0.41-0.27-0.83-0.54-1.24-0.81l-0.08-0.01
	c-0.32-1.21-3.33,0.04-2.24-2.45l0.01,0c0.67-0.32,1.33-0.64,2-0.96c1.75,4.04,5.5,4.36,9.13,4.89
	C71.08,91.63,70.28,92.42,69.48,93.21z"/>
<path class="st3" d="M91.75,30.2c-2.38-2.05-4.55-4.27-5.51-7.38c0.46-0.26,0.92-0.53,1.38-0.79c1.63,2.61,3.26,5.21,4.89,7.82
	C92.25,29.97,92,30.08,91.75,30.2z"/>
<path class="st1" d="M26.91,9.29c-1.23,1.87-2.47,3.73-3.68,5.61c-0.61,0.94-1.16,3.1-1.76,2.62c-1.24-1-0.27-2.7,0.41-4.04
	c0.23-0.44,0.41-0.91,0.61-1.36C23.97,11.18,25.44,10.24,26.91,9.29z"/>
<path class="st3" d="M9.22,26.57C9.11,29.51,8.26,32.26,7,34.9c-0.47-0.22-0.94-0.43-1.41-0.65C6.8,31.69,8.01,29.13,9.22,26.57z"/>
<path class="st2" d="M5.58,34.25C6.05,34.47,6.53,34.69,7,34.9c-1.21,2.48-2.42,4.95-3.62,7.43C4.11,39.64,4.85,36.95,5.58,34.25z"
	/>
<path class="st1" d="M88.17,78.51c-0.3-0.06-0.59-0.13-0.89-0.19c0.2-0.22,0.4-0.44,0.58-0.67c1.46-1.91,2.92-3.82,3.6-6.19
	c0.08-0.28,0.34-0.52,0.52-0.78c0.14,0.29,0.28,0.57,0.42,0.86C91,73.87,89.58,76.19,88.17,78.51z"/>
<path class="st2" d="M87.62,22.03c-0.46,0.26-0.92,0.53-1.38,0.79c-1.05-1.46-1.84-3.03-2.12-4.82
	C85.29,19.34,86.45,20.69,87.62,22.03z"/>
<path class="st4" d="M81.43,85.97c0.09-2.43,0.16-4.85,0.28-7.27c0.01-0.23,0.36-0.44,0.55-0.66c0.06,0.14,0.11,0.29,0.17,0.43
	c-0.03,0.59-0.05,1.19-0.08,1.78c-0.12,1.74-0.24,3.49-0.37,5.23C81.8,85.64,81.62,85.8,81.43,85.97z"/>
<path class="st2" d="M91.75,30.2c0.25-0.12,0.5-0.24,0.75-0.35c0.27,0.65,0.54,1.3,0.81,1.95C92.79,31.27,92.27,30.73,91.75,30.2z"
	/>
<path class="st1" d="M27.47,9.02C27.31,9.1,27.16,9.18,27,9.26C27.16,9.18,27.31,9.1,27.47,9.02z"/>
<path class="st2" d="M84.13,18.02c-0.06-0.08-0.12-0.15-0.19-0.23C84.01,17.86,84.07,17.94,84.13,18.02z"/>
<path class="st2" d="M83.96,17.81c-0.07-0.08-0.13-0.16-0.2-0.24C83.83,17.65,83.9,17.73,83.96,17.81z"/>
<path class="st2" d="M93.45,32.01c-0.05-0.08-0.1-0.15-0.15-0.23C93.35,31.86,93.4,31.94,93.45,32.01z"/>
<path class="st3" d="M24.73,39.13c-1.8,0.38-3.82,0.53-3.54,3.2c-0.31,1.49-0.6,2.99-0.95,4.46c-0.22,0.88,0.1,2.24-0.92,2.5
	c-1.02,0.26-0.73-1.28-1.38-1.75c-0.36-1.56-0.72-3.12-1.08-4.67c-0.02-0.13-0.04-0.26-0.07-0.39c-0.02-0.63,0.07-1.32-0.83-1.46
	c-0.07-0.02-0.13-0.05-0.2-0.07c-1.26-0.53-2.54-1.01-3.76-1.62c-0.62-0.31-1.13-0.84-1.69-1.27c0.46-0.4,0.91-0.81,1.37-1.21
	c0.79-0.08,1.59-0.16,2.38-0.24c0.4-0.08,0.8-0.15,1.19-0.23c0.17-0.04,0.33-0.09,0.5-0.13c1.7-0.24,1.37-1.75,1.69-2.8
	c0.63-2.1,1.11-4.25,1.74-6.35c0.15-0.51,0.64-0.91,0.97-1.37c0.27,0.5,0.54,1,0.81,1.5c-0.02,0.05-0.02,0.09,0.02,0.13
	c0.23,1.6,0.46,3.19,0.7,4.79c0.03,0.33,0.05,0.65,0.08,0.98c0.02,0.1,0.04,0.2,0.06,0.29c0.07,0.5,0.14,0.99,0.22,1.49
	c1.09,0.38,2.19,0.76,3.28,1.14c0.24,0.06,0.48,0.12,0.72,0.19c0.27,0.06,0.55,0.12,0.82,0.17c0,0-0.02,0-0.02,0
	c1.23,0.55,2.65,1.1,0.23,2.03C26.34,38.76,25.52,38.91,24.73,39.13z M19.95,42.58c0.16-1.02,0.31-2.05,0.47-3.07
	c1.69-0.57,3.38-1.14,5.07-1.72c0.2-0.07,0.38-0.18,0.57-0.27c-0.08-0.08-0.14-0.21-0.23-0.23c-1.49-0.42-2.97-0.83-4.46-1.24
	c-0.32-0.15-0.65-0.31-0.97-0.46c-0.06-1.58-0.09-3.17-0.18-4.75c-0.04-0.65-0.2-1.28-0.31-1.93c-0.2,0.58-0.37,1.18-0.6,1.75
	c-0.84,2.12-0.12,4.84-2.25,6.42c-0.85,0.63-2.02,0.82-3.05,1.21c1.11,0.58,2.21,1.17,3.32,1.75c0.31,0.96,0.63,1.92,0.94,2.88
	c0.32,1.33,0.64,2.66,0.96,3.99c0.23-1.26,0.46-2.51,0.69-3.77C19.95,42.96,19.94,42.77,19.95,42.58z"/>
<path class="st1" d="M66.32,38.5c-0.57,0.08-1.14,0.17-1.71,0.25c-5.05-2.49-9.82-5.44-13.93-9.28c-1.93-1.8-3.43-4.05-5.09-6.13
	c-0.13-0.16-0.02-0.53-0.01-0.8c0.4,0.18,0.91,0.26,1.2,0.55c4.79,4.9,10.55,8.48,16.38,11.96C64.54,35.88,66.87,35.88,66.32,38.5z"
	/>
<path class="st3" d="M77.4,74.7c0.13-0.39,0.27-0.79,0.4-1.18c0.17-0.51,0.35-1.02,0.52-1.53c0.15-0.27,0.3-0.53,0.45-0.8
	c0,0,0.09,0,0.09,0l0.09,0.03c0.12,0.04,0.23,0.08,0.35,0.12c0.43,0.04,0.87,0.08,1.3,0.12c0.14,0.02,0.28,0.04,0.42,0.06
	c0.19,0.05,0.38,0.11,0.57,0.16c0.21,2.02,0.43,4.05,0.64,6.07c-0.97,0.02-1.94,0.03-2.9,0.05c-0.39,0-0.78,0.01-1.17,0.01
	c-0.5-0.03-1.01-0.06-1.51-0.08C76.92,76.72,77.16,75.71,77.4,74.7z"/>
<path class="st1" d="M72.62,37.92c-3.46-2.79-6.91-5.57-10.37-8.36c-0.96-0.78-1.92-1.56-2.85-2.38c-0.2-0.18-0.26-0.53-0.38-0.8
	c0.34-0.05,0.82-0.27,0.99-0.13c4.3,3.63,9.65,5.97,13.12,10.6c0.17,0.23,0.05,0.67,0.06,1.01C73.01,37.88,72.82,37.9,72.62,37.92z"
	/>
<path class="st1" d="M10.38,63.28c-0.65,6.26,0.95,11.41,5.68,15.4c0.14,0.12,0.17,0.38,0.24,0.57c-0.26,0.05-0.55,0.19-0.78,0.13
	c-4.05-1.21-4.72-4.95-6.01-8.18c-1-2.48-0.54-5.05,0.01-7.57c0.06-0.28,0.34-0.52,0.52-0.78C10.2,63.06,10.36,63.26,10.38,63.28z"
	/>
<path class="st1" d="M26.06,36.25c-0.24-0.06-0.48-0.12-0.72-0.19c0.99-3.62,1.95-7.25,2.98-10.86c0.11-0.4,0.61-0.68,0.93-1.02
	c0.11,0.42,0.37,0.88,0.29,1.27c-0.65,3.41-1.36,6.81-2.08,10.21c-0.06,0.29-0.39,0.52-0.6,0.77c0,0,0.02,0,0.02,0
	C26.61,36.37,26.33,36.31,26.06,36.25z"/>
<path class="st1" d="M55.5,6.16c2.99,0.09,9.52,6.64,9.65,9.45c0.01,0.19-0.11,0.39-0.17,0.59c-0.18-0.11-0.4-0.19-0.53-0.34
	c-2.8-3.3-5.3-6.93-9.54-8.66c-0.11-0.05-0.23-0.42-0.19-0.45C55.01,6.49,55.34,6.28,55.5,6.16z"/>
<path class="st1" d="M82.35,80.25c0.03-0.59,0.05-1.19,0.08-1.78c2.74-3.83,5.07-7.85,6.07-12.52c0.03-0.15,0.2-0.27,0.31-0.4
	c0.09,0.15,0.23,0.28,0.26,0.44C89.7,69.22,85.15,78.86,82.35,80.25z"/>
<path class="st1" d="M47.53,7.69c3.8,0.05,11.46,5.72,12.42,9c0.06,0.19-0.04,0.42-0.06,0.64c-0.22-0.06-0.52-0.04-0.65-0.18
	c-3.47-3.71-6.87-7.52-12.12-8.77c-0.1-0.02-0.15-0.24-0.23-0.36C47.17,7.87,47.46,7.73,47.53,7.69z"/>
<path class="st1" d="M34.19,7.7c-1.17,1.1-2.24,1.91-3.08,2.93c-1.84,2.24-3.56,4.59-5.33,6.89c-0.12,0.16-0.32,0.25-0.49,0.37
	c-0.02-0.24-0.11-0.51-0.04-0.72c1.36-3.87,3.43-7.22,7.04-9.4c0.37-0.22,0.87-0.26,1.32-0.32C33.76,7.42,33.94,7.58,34.19,7.7z"/>
<path class="st1" d="M63.96,7.52c2.01-0.03,6.95,6.61,6.34,8.42c-0.03,0.08-0.41,0.14-0.42,0.11c-1.51-3.03-4.03-5.25-6.24-7.71
	C63.23,7.88,63.52,7.6,63.96,7.52z"/>
<path class="st1" d="M14.08,36.62c-0.79,0.08-1.59,0.16-2.38,0.24c1.21-2.2,2.4-4.42,3.65-6.6c0.17-0.3,0.63-0.44,0.96-0.66
	c0.01,0.37,0.14,0.78,0.02,1.11C15.61,32.69,14.84,34.65,14.08,36.62z"/>
<path class="st5" d="M81.61,71.67c-0.19-0.05-0.38-0.11-0.57-0.16c-0.14-0.02-0.28-0.04-0.42-0.06c-0.43-0.04-0.87-0.08-1.3-0.12
	c-0.12-0.04-0.23-0.08-0.35-0.12l-0.09-0.03c0,0-0.09,0-0.09,0c0.55-1.37,1.11-2.74,1.66-4.12C80.83,68.6,81.22,70.14,81.61,71.67z"
	/>
<path class="st1" d="M21.78,33.15c-0.03-0.33-0.05-0.65-0.08-0.98c0.42-0.74,0.82-1.48,1.26-2.2c0.17-0.28,0.44-0.5,0.67-0.75
	c0.07,0.35,0.27,0.75,0.17,1.04c-0.54,1.57-1.15,3.11-1.74,4.66c-0.07-0.5-0.14-0.99-0.22-1.49C21.82,33.34,21.8,33.24,21.78,33.15z
	"/>
<path class="st4" d="M31.23,39.47c1.55,0.32,3.1,0.64,4.65,0.96c-1.71,0.37-3.31,0.02-4.81-0.81
	C31.12,39.57,31.18,39.52,31.23,39.47z"/>
<path class="st6" d="M91.94,48.98c-0.15-0.11-0.31-0.23-0.46-0.34c-0.16-0.49-0.32-0.99-0.49-1.48c0.09-0.08,0.19-0.17,0.28-0.25
	C91.5,47.6,91.72,48.29,91.94,48.98z"/>
<path class="st6" d="M85.32,62.65c0.11,0.46,0.28,0.85,0.87,0.57c-0.25,0.12-0.51,0.25-0.76,0.37
	C85.39,63.27,85.35,62.96,85.32,62.65z"/>
<path class="st6" d="M79.61,62.08c0.04-0.06,0.09-0.12,0.13-0.17c0.15-0.03,0.31-0.07,0.47-0.1c0.02,0.26,0.04,0.51,0.06,0.77
	c-0.25,0.01-0.5,0.01-0.75,0.02C79.54,62.43,79.58,62.26,79.61,62.08z"/>
<g>
	<polygon class="st0" points="84.12,18 84.12,18.01 84.13,18.02 	"/>
	<path class="st0" d="M93.45,32.01c-0.05-0.07-0.1-0.15-0.15-0.22c-0.52-0.53-1.03-1.06-1.55-1.59c-2.38-2.05-4.55-4.27-5.51-7.38
		c-1.05-1.45-1.84-3.02-2.12-4.82c-0.06-0.07-0.12-0.15-0.18-0.22c0,0,0.02,0.02,0.02,0.02c-0.07-0.08-0.13-0.16-0.2-0.24
		C70.85,2.84,43.27-1.35,27.47,9.02C27.31,9.1,27.16,9.18,27,9.26c-0.04-0.01-0.07,0-0.09,0.04c-1.23,1.87-2.47,3.73-3.68,5.61
		c-0.61,0.94-1.16,3.1-1.76,2.62c-1.24-1-0.27-2.7,0.41-4.04c0.23-0.44,0.41-0.91,0.61-1.36c-5.5,3.83-9.92,8.65-13.28,14.45
		C9.11,29.51,8.26,32.26,7,34.9c-1.21,2.48-2.42,4.95-3.62,7.43c-2.8,18.16,2.86,33.17,16.78,45.1c3.83,0.09,7.6-0.06,10.8-2.59
		c-0.03-0.14-0.07-0.27-0.1-0.41l-0.01-0.05c0.15-0.61-2.43-1.04-0.12-1.79c0.09-0.04,0.18-0.08,0.27-0.11
		c0.17-0.11,0.33-0.22,0.5-0.33c0.89-0.84,1.78-1.67,2.67-2.51c0.12-0.15,0.24-0.31,0.36-0.46c0.07-0.1,0.15-0.2,0.22-0.31
		c0.12-0.16,0.24-0.31,0.35-0.47c0.31-0.6,0.63-1.21,0.94-1.81c0.06-0.14,0.12-0.27,0.19-0.41c0.21-0.51,0.43-1.03,0.64-1.54l0,0
		c0,0,0,0,0,0c0,0,0,0,0,0h0c0.05-0.23,0.09-0.46,0.14-0.69c-0.24,0.21-0.48,0.42-0.72,0.63c-0.53,0.31-1.06,0.61-1.58,0.92
		c-2.84,1.83-5.42,1.03-7.89-0.81l-0.07-0.01l-0.03-0.07c-0.35-0.29-0.71-0.58-1.06-0.88l-0.07,0l-0.02-0.06
		c-0.17-0.12-0.35-0.25-0.52-0.37c-0.17-0.2-0.35-0.41-0.52-0.61c-0.58-1.19-1.17-2.39-1.75-3.58c-0.08-0.32-0.17-0.64-0.25-0.96
		c-0.04-0.25-0.08-0.51-0.11-0.76c-0.02-0.19-0.04-0.39-0.06-0.58c-0.08-0.47-0.17-0.94-0.25-1.41c-0.05-0.16-0.11-0.32-0.16-0.48
		c-2.55-2.07-4.1-4.76-4.97-7.88c-0.07,0-0.14,0-0.21,0c-0.04,0.08-0.07,0.16-0.11,0.23c0.02,0.05,0.04,0.09,0.05,0.14
		c0,0.02-0.03,0.04-0.05,0.06c-0.08,1.28-0.15,2.56-0.23,3.84c-1.1-0.73-2.25-1.41-3.31-2.2c-4.95-3.73-5.6-9.45-1.58-13.78
		c0.89-0.95,1.96-1.51,3.32-1.27c0.06-0.07,0.12-0.15,0.17-0.22c0-0.17,0-0.33,0-0.5c-0.04-0.14-0.08-0.27-0.12-0.41
		c-0.01-0.14-0.01-0.29-0.02-0.43c-0.33-0.62,0.02-0.89,0.54-1.08c0.12-0.15,0.24-0.3,0.37-0.46c-1.26-0.53-2.54-1.01-3.76-1.62
		c-0.62-0.31-1.13-0.84-1.69-1.27c0.46-0.4,0.91-0.81,1.37-1.21c1.21-2.2,2.4-4.42,3.65-6.6c0.17-0.3,0.63-0.44,0.96-0.66
		c0.01,0.37,0.14,0.78,0.02,1.11c-0.72,1.98-1.49,3.94-2.24,5.91c0.4-0.08,0.8-0.15,1.19-0.23c0.17-0.04,0.33-0.09,0.5-0.13
		c1.7-0.24,1.37-1.75,1.69-2.8c0.63-2.1,1.11-4.25,1.74-6.35c0.15-0.51,0.64-0.91,0.97-1.37c0.27,0.5,0.54,1,0.81,1.5
		c0.02,0.03,0.05,0.06,0.06,0.09c0,0-0.03,0.03-0.05,0.04c0.23,1.6,0.46,3.19,0.7,4.79c0.42-0.74,0.82-1.48,1.26-2.2
		c0.17-0.28,0.44-0.5,0.67-0.75c0.07,0.35,0.27,0.75,0.17,1.04c-0.54,1.57-1.15,3.11-1.74,4.66c1.09,0.38,2.19,0.76,3.28,1.14
		c0.99-3.62,1.95-7.25,2.98-10.86c0.11-0.4,0.61-0.68,0.93-1.02c0.11,0.42,0.37,0.88,0.29,1.27c-0.65,3.41-1.36,6.81-2.08,10.21
		c-0.06,0.29-0.39,0.52-0.6,0.77c1.23,0.55,2.65,1.1,0.23,2.03c-0.76,0.3-1.58,0.45-2.37,0.66c2.11,0.16,4.22,0.33,6.34,0.49
		c0.05-0.05,0.11-0.1,0.16-0.15c0.15-0.32,0.3-0.65,0.45-0.97c0.04-0.14,0.07-0.28,0.11-0.41c0.26-0.61,0.52-1.22,0.77-1.84
		c0.19-0.53,0.38-1.05,0.57-1.57c0.15-0.51,0.31-1.02,0.46-1.53c0.09-0.26,0.17-0.51,0.26-0.77c0.04-0.13,0.08-0.26,0.12-0.38
		c0.09-0.32,0.18-0.64,0.28-0.96c0.04-0.13,0.08-0.25,0.12-0.38c0.03-0.13,0.07-0.26,0.1-0.39c0.03-0.13,0.06-0.25,0.08-0.38
		c0.02-0.13,0.04-0.26,0.06-0.39c0.04-0.13,0.07-0.26,0.11-0.38c0.04-0.19,0.08-0.38,0.12-0.57c0.03-0.13,0.06-0.25,0.09-0.38
		c0.04-0.19,0.08-0.38,0.12-0.58c0.05-0.19,0.09-0.39,0.14-0.58c0.04-0.16,0.08-0.31,0.12-0.47c0.05-0.26,0.09-0.51,0.14-0.77
		c0.22,0.28,0.45,0.57,0.67,0.85c0.17,0.23,0.35,0.46,0.52,0.69c0.15,0.16,0.3,0.32,0.44,0.48c0.1,0.13,0.2,0.26,0.29,0.39
		c0.26,0.31,0.52,0.63,0.78,0.94c0.38,0.39,0.76,0.77,1.14,1.16c0.14,0.16,0.29,0.31,0.43,0.47c0.18,0.21,0.36,0.41,0.55,0.62
		c0.66,0.64,1.33,1.28,1.99,1.93c0.09,0.07,0.19,0.15,0.28,0.22c0.16,0.12,0.31,0.24,0.47,0.35c0.06-0.01,0.09,0.01,0.1,0.08
		c0.25,0.18,0.51,0.36,0.76,0.53c0.26,0.19,0.52,0.37,0.78,0.56c0.16,0.12,0.33,0.23,0.49,0.35c0.4,0.28,0.81,0.57,1.21,0.85
		c0.16,0.1,0.33,0.2,0.49,0.31c0.16,0.1,0.32,0.2,0.47,0.31c0.16,0.09,0.33,0.17,0.49,0.26c0.1,0.05,0.2,0.11,0.3,0.16
		c1,0.44,2,0.88,3,1.33c0.2,0.1,0.4,0.2,0.61,0.3c0.25,0.09,0.49,0.18,0.74,0.27c0.46,0.18,0.91,0.36,1.37,0.54
		c0.18,0.08,0.36,0.16,0.53,0.24c0.33,0.12,0.66,0.23,1,0.35c0.12,0.05,0.25,0.09,0.38,0.14c0.13,0.04,0.27,0.09,0.4,0.13
		c0.16,0.07,0.32,0.15,0.48,0.22c0.29,0.03,0.59,0.05,0.88,0.08c2.36-0.71,4.71-1.42,7.07-2.12c-5.05-2.49-9.82-5.44-13.93-9.28
		c-1.93-1.8-3.43-4.05-5.09-6.13c-0.13-0.16-0.02-0.53-0.01-0.8c0.4,0.18,0.91,0.26,1.2,0.55c4.79,4.9,10.55,8.48,16.38,11.96
		c1.39,0.83,3.72,0.82,3.17,3.45c2.11-0.13,4.22-0.26,6.33-0.4c-0.01-0.06-0.01-0.13-0.03-0.19c-3.46-2.79-6.91-5.57-10.37-8.36
		c-0.96-0.78-1.92-1.56-2.85-2.38c-0.2-0.18-0.26-0.53-0.38-0.8c0.34-0.05,0.82-0.27,0.99-0.13c4.3,3.63,9.65,5.97,13.12,10.6
		c0.17,0.23,0.05,0.67,0.06,1.01c1.78-0.06,3.57-0.12,5.35-0.18c0.31,0.01,0.61,0.01,0.92,0.02c0.7-0.93,1.66-0.38,2.51-0.45
		c0.14,0,0.28,0,0.41,0.01c3.8-0.14,2.54,2.75,2.81,4.72c0.07,0.53,0.04,1.08,0.05,1.62c2.61-0.26,4.69,0.5,5.85,3.03
		c0.06,0.09,0.11,0.18,0.17,0.28c0.22,0.69,0.44,1.38,0.66,2.08c0.05,0.47,0.1,0.95,0.14,1.42c-0.02,0.37-0.04,0.75-0.06,1.12
		c-0.08,0.69-0.17,1.39-0.25,2.08c-0.02,0.12-0.04,0.23-0.06,0.35c-0.05,0.28-0.1,0.56-0.16,0.84c-0.03,0.13-0.06,0.25-0.09,0.38
		c-0.03,0.13-0.05,0.25-0.08,0.38c-0.05,0.11-0.1,0.22-0.15,0.34c-0.76,1.41-1.52,2.81-2.28,4.22c-0.08,0.1-0.16,0.2-0.23,0.31
		c-0.22,0.29-0.45,0.57-0.67,0.86c-0.09,0.11-0.18,0.22-0.26,0.32c-0.11,0.15-0.22,0.29-0.33,0.44c-0.15,0.17-0.3,0.34-0.45,0.51
		c-0.09,0.09-0.18,0.18-0.27,0.26c-0.11,0.08-0.22,0.16-0.34,0.24c-0.07,0.05-0.14,0.1-0.21,0.16c-0.25,0.12-0.51,0.25-0.76,0.37
		c-0.04-0.31-0.08-0.63-0.11-0.94c0-1.95,0-3.89,0-5.84c-0.03-0.42-0.05-0.84-0.08-1.26c-0.03-0.18-0.06-0.36-0.09-0.54
		c-0.02-0.26-0.05-0.53-0.07-0.79c-0.03-0.12-0.07-0.25-0.1-0.37c-0.03-0.19-0.07-0.39-0.1-0.58c-0.04-0.19-0.08-0.37-0.12-0.56
		c-0.03-0.13-0.05-0.25-0.08-0.38c-0.07-0.18-0.14-0.35-0.21-0.53c-0.18,0.22-0.36,0.45-0.54,0.67c-0.28,3.39-1.73,6.29-3.73,8.97
		c0,0.13,0,0.25,0.01,0.38c0.02,0.26,0.04,0.51,0.06,0.77c0.06,1.49,0.12,2.99,0.18,4.49c0.39,1.53,0.78,3.07,1.17,4.6
		c0.21,2.02,0.43,4.05,0.64,6.07c0,0.05,0,0.11-0.01,0.16c0.04,0.04,0.05,0.08,0.02,0.13c0.06,0.14,0.11,0.29,0.17,0.43
		c2.74-3.83,5.07-7.85,6.07-12.52c0.03-0.15,0.2-0.27,0.31-0.4c0.09,0.15,0.23,0.28,0.26,0.44c0.63,3.24-3.92,12.88-6.72,14.27
		c-0.12,1.74-0.24,3.49-0.37,5.23c2.06-2.32,4.12-4.65,6.18-6.97c-0.3-0.06-0.59-0.13-0.89-0.19c0.2-0.22,0.4-0.44,0.58-0.67
		c1.46-1.91,2.92-3.82,3.6-6.19c0.08-0.28,0.34-0.52,0.52-0.78c0.14,0.29,0.28,0.57,0.42,0.86C98.64,58.52,98.97,45.34,93.45,32.01z
		 M9.52,63.63c0.06-0.28,0.34-0.52,0.52-0.78c0.16,0.2,0.31,0.41,0.33,0.43c-0.65,6.26,0.95,11.41,5.68,15.4
		c0.14,0.12,0.17,0.38,0.24,0.57c-0.26,0.05-0.55,0.19-0.78,0.13c-4.05-1.21-4.72-4.95-6.01-8.18C8.51,68.71,8.97,66.15,9.52,63.63z
		 M31.11,10.63c-1.84,2.24-3.56,4.59-5.33,6.89c-0.12,0.16-0.32,0.25-0.49,0.37c-0.02-0.24-0.11-0.51-0.04-0.72
		c1.36-3.87,3.43-7.22,7.04-9.4c0.37-0.22,0.87-0.26,1.32-0.32c0.15-0.02,0.34,0.14,0.58,0.26C33.02,8.8,31.94,9.61,31.11,10.63z
		 M59.88,17.33c-0.22-0.06-0.52-0.04-0.65-0.18c-3.47-3.71-6.87-7.52-12.12-8.77c-0.1-0.02-0.15-0.24-0.23-0.36
		c0.29-0.14,0.58-0.29,0.64-0.32c3.8,0.05,11.46,5.72,12.42,9C60,16.88,59.91,17.11,59.88,17.33z M64.98,16.21
		c-0.18-0.11-0.4-0.19-0.53-0.34c-2.8-3.3-5.3-6.93-9.54-8.66c-0.11-0.05-0.23-0.42-0.19-0.45c0.29-0.26,0.63-0.47,0.79-0.58
		c2.99,0.09,9.52,6.64,9.65,9.45C65.16,15.81,65.04,16.01,64.98,16.21z M70.3,15.94c-0.03,0.08-0.41,0.14-0.42,0.11
		c-1.51-3.03-4.03-5.25-6.24-7.71c-0.41-0.46-0.12-0.74,0.32-0.82C65.96,7.49,70.91,14.13,70.3,15.94z"/>
	<polygon class="st0" points="93.3,31.79 93.3,31.79 93.31,31.8 	"/>
</g>
<path class="st4" d="M79.35,77.79c0.97-0.02,1.94-0.03,2.9-0.05c0,0.05,0,0.11-0.01,0.16C81.28,77.87,80.31,77.83,79.35,77.79z"/>
<path class="st4" d="M15.41,41.42c-0.18,0.36-0.36,0.72-0.54,1.08C14.54,41.88,14.88,41.6,15.41,41.42z"/>
<path class="st6" d="M85.24,55.55c0.03,0.42,0.05,0.84,0.08,1.26C85.29,56.39,85.27,55.97,85.24,55.55z"/>
<path class="st6" d="M92.02,51.53c0.02-0.37,0.04-0.75,0.06-1.12C92.06,50.78,92.04,51.15,92.02,51.53z"/>
<path class="st6" d="M85.08,54.22c0.02,0.26,0.05,0.53,0.07,0.79C85.13,54.75,85.1,54.49,85.08,54.22z"/>
<path class="st6" d="M87,62.56c0.15-0.17,0.3-0.34,0.45-0.51C87.3,62.22,87.15,62.39,87,62.56z"/>
<path class="st4" d="M80.2,61.81c-0.16,0.03-0.31,0.07-0.47,0.1c0.15-0.16,0.31-0.32,0.46-0.47C80.2,61.56,80.2,61.69,80.2,61.81z"
	/>
<path class="st6" d="M84.87,53.27c0.03,0.19,0.07,0.39,0.1,0.58C84.94,53.66,84.91,53.46,84.87,53.27z"/>
<path class="st6" d="M87.77,61.61c0.09-0.11,0.18-0.22,0.26-0.32C87.95,61.39,87.86,61.5,87.77,61.61z"/>
<path class="st6" d="M88.71,60.42c0.08-0.1,0.16-0.2,0.23-0.31C88.87,60.22,88.79,60.32,88.71,60.42z"/>
<path class="st4" d="M14.88,42.93c0.04,0.14,0.08,0.27,0.12,0.41C14.96,43.2,14.92,43.06,14.88,42.93z"/>
<path class="st6" d="M91.23,55.9c0.05-0.11,0.1-0.22,0.15-0.34C91.33,55.67,91.28,55.79,91.23,55.9z"/>
<path class="st6" d="M91.46,55.18c0.03-0.13,0.06-0.26,0.09-0.38C91.52,54.93,91.49,55.05,91.46,55.18z"/>
<path class="st6" d="M86.39,63.06c0.11-0.08,0.22-0.16,0.34-0.24C86.62,62.9,86.51,62.98,86.39,63.06z"/>
<path class="st6" d="M36.22,76.18c-0.06,0.14-0.12,0.27-0.19,0.41C36.09,76.46,36.16,76.32,36.22,76.18z"/>
<path class="st6" d="M91.71,53.96c0.02-0.12,0.04-0.23,0.06-0.35C91.75,53.73,91.73,53.84,91.71,53.96z"/>
<path class="st6" d="M84.68,52.33c0.03,0.13,0.05,0.25,0.08,0.38C84.73,52.58,84.7,52.45,84.68,52.33z"/>
<path class="st2" d="M15.77,36.26c-0.17,0.04-0.33,0.09-0.5,0.13C15.44,36.35,15.61,36.31,15.77,36.26z"/>
<path class="st4" d="M16.73,57.03c-0.04-0.07-0.02-0.12,0.04-0.17c0.06,0.06,0.12,0.12,0.18,0.17
	C16.88,57.03,16.81,57.03,16.73,57.03z"/>
<path class="st2" d="M21,27.38c-0.03-0.04-0.04-0.09-0.02-0.13c0.02,0.03,0.05,0.06,0.06,0.09C21.05,27.34,21.02,27.37,21,27.38z"/>
<path class="st6" d="M16.63,57.46c-0.01-0.05-0.03-0.09-0.04-0.14c0-0.02,0.03-0.04,0.04-0.06c0.02,0.05,0.04,0.09,0.05,0.14
	C16.68,57.42,16.64,57.44,16.63,57.46z"/>
<path class="st4" d="M76.67,77.72c0.5,0.03,1.01,0.06,1.51,0.08c-0.5,0.29-1.01,0.58-1.51,0.87C76.67,78.35,76.67,78.04,76.67,77.72
	z"/>
<path class="st5" d="M49.64,72.86c0.06,0.01,0.12,0.02,0.19,0.03c0.14-0.04,0.28-0.07,0.42-0.11c2.34-0.39,3.43-2.32,4.77-3.92
	c0.38,0.06,0.77,0.13,1.15,0.19c0.93,1.01-0.27,1.67-0.41,2.5c-0.13,0.21-0.26,0.41-0.39,0.62c-0.99,1.33-2.25,2.3-3.8,2.91
	c-0.19,0.05-0.39,0.09-0.58,0.14c-0.65-0.01-1.31-0.02-1.96-0.02c-0.23-0.12-0.46-0.25-0.69-0.37c-1.63-0.76-2.29-2.26-2.91-3.79
	c-0.04-0.13-0.08-0.27-0.12-0.4c0.05-0.67,0.1-1.34,0.15-2.01c0.13-0.08,0.25-0.17,0.38-0.25c2.26,0.14,1.36,2.61,2.59,3.51
	c0.3,0.22,0.55,0.49,0.83,0.73C49.39,72.69,49.51,72.77,49.64,72.86z"/>
<path class="st6" d="M38.35,88.64c0.08-0.03,0.15-0.05,0.23-0.08c6.31,3.13,12.79,2.91,19.37,1.03c0.24-0.07,0.53,0.08,0.8,0.12
	c-0.17,0.2-0.31,0.44-0.51,0.6C53.34,94.26,41.15,93.23,38.35,88.64z"/>
<path class="st6" d="M64.15,69.22c0.71,0,1.42-0.01,2.13-0.01c0.2,0,0.4,0,0.61,0c0,0,0.09,0.03,0.09,0.03l0.08-0.03
	c0.51,0,1.02-0.01,1.53-0.01c0.77-0.15,1.55-0.29,2.32-0.44l0,0c1.46-0.28,2.77-0.87,3.85-1.91c0.12-0.07,0.23-0.14,0.35-0.21
	c0.71-0.44,1.41-0.89,2.12-1.33c-0.52,2.73-2.51,4.03-4.94,4.22C69.6,69.73,66.87,69.34,64.15,69.22z"/>
<path class="st6" d="M28.23,68.38c1.8,0.3,3.6,0.6,5.41,0.9c-0.15,0.13-0.29,0.27-0.44,0.4c-0.12,0.01-0.25,0.02-0.37,0.02
	c-0.13,0.06-0.26,0.12-0.38,0.17c-0.13,0.01-0.25,0.01-0.38,0.02c-0.19,0-0.39,0.01-0.58,0.01c-0.13-0.01-0.25-0.02-0.38-0.02
	c-0.7-0.12-1.4-0.25-2.1-0.37c-0.42-0.15-0.84-0.29-1.26-0.44c-0.41-0.36-0.83-0.73-1.24-1.09c0.32,0.06,0.64,0.13,0.97,0.19
	C27.72,68.24,27.97,68.31,28.23,68.38z"/>
<path class="st4" d="M77.23,65.3c-0.71,0.44-1.41,0.89-2.12,1.33c0.82-0.71,1.63-1.43,2.45-2.14c0.03,0.02,0.05,0.05,0.08,0.07
	c-0.02,0.11-0.04,0.22-0.06,0.33C77.46,65.03,77.35,65.16,77.23,65.3z"/>
<path class="st6" d="M77.58,64.89c0.02-0.11,0.04-0.22,0.06-0.33c0.25-0.19,0.5-0.38,0.76-0.57C78.13,64.29,77.85,64.59,77.58,64.89
	z"/>
<path class="st6" d="M78.93,63.36c0.11-0.14,0.22-0.27,0.33-0.41C79.15,63.09,79.04,63.23,78.93,63.36z"/>
<path class="st6" d="M58.85,67.58c0.18,0.07,0.36,0.15,0.54,0.22C59.21,67.73,59.03,67.65,58.85,67.58z"/>
<path class="st6" d="M24.21,66.82c-0.13,0.01-0.26,0.01-0.38,0.02c-0.04-0.09-0.09-0.18-0.13-0.26
	C23.87,66.66,24.04,66.74,24.21,66.82z"/>
<path class="st6" d="M57.17,66.58c0.16,0.09,0.32,0.19,0.48,0.28C57.49,66.77,57.33,66.67,57.17,66.58z"/>
<path class="st6" d="M58.02,67.13c0.11,0.05,0.22,0.11,0.32,0.16C58.24,67.24,58.13,67.18,58.02,67.13z"/>
<path class="st6" d="M24.83,67.16c0.07,0.04,0.13,0.08,0.2,0.12C24.96,67.24,24.89,67.2,24.83,67.16z"/>
<path class="st6" d="M79.28,62.93c0.04-0.06,0.09-0.13,0.13-0.19C79.36,62.81,79.32,62.87,79.28,62.93z"/>
<path class="st6" d="M23.16,66.2c0.05,0.05,0.1,0.1,0.15,0.15C23.26,66.3,23.21,66.25,23.16,66.2z"/>
<path class="st6" d="M58.48,67.38c0.07,0.04,0.15,0.09,0.22,0.13C58.63,67.47,58.55,67.42,58.48,67.38z"/>
<path class="st6" d="M23.45,66.45c0.07,0.04,0.14,0.08,0.21,0.12C23.6,66.53,23.52,66.49,23.45,66.45z"/>
<path class="st6" d="M78.42,63.98c0.06-0.06,0.11-0.12,0.17-0.18C78.53,63.86,78.47,63.92,78.42,63.98z"/>
<path class="st4" d="M39.52,41c0.38,0.13,0.77,0.26,1.15,0.38c-0.68,0.08-1.46,0.69-1.92-0.37c0.07-0.03,0.13-0.07,0.2-0.1
	C39.14,40.95,39.33,40.97,39.52,41z"/>
<path class="st0" d="M29.78,42.79c-0.72,1.47-1.44,2.94-2.16,4.4c-0.23-0.17-0.46-0.35-0.69-0.52c-0.29,0.43-0.62,0.85-0.87,1.3
	c-0.67,1.19-0.13,2.91-1.59,3.76c-0.71,0.41-1.93,0.3-2.05,1.29c-0.14,1.09,1.15,1.06,1.78,1.57c-0.73,2.16-1.45,4.32-2.18,6.48
	c-0.09,0.04-0.18,0.09-0.27,0.13c-2.51-3.82-2.47-8.41-3.84-12.58c0.01-0.36,0.03-0.72,0.04-1.08c0.65,0.47,0.36,2.01,1.38,1.75
	c1.02-0.26,0.7-1.62,0.92-2.5c0.36-1.48,0.64-2.97,0.95-4.46c0.37,0.03,0.74,0.06,1.11,0.08c0.24,0.57-0.71,1.56,0.22,1.67
	c0.5,0.06,1.14-1.03,1.71-1.61c1.85,0,3.69,0,5.54,0.01C29.78,42.59,29.78,42.69,29.78,42.79z"/>
<path class="st5" d="M15.04,48.02c0.12,0.4,0.25,0.8,0.37,1.2c-0.05,0.05-0.07,0.1-0.07,0.17c-1.69-0.44-2.17,1.06-3.06,1.91
	c-0.23,0.22-0.54,0.36-0.82,0.54c-0.12-0.39-0.47-0.96-0.33-1.14C12.14,49.41,12.95,47.75,15.04,48.02z"/>
<path class="st1" d="M24.23,42.48c-0.58,0.57-1.21,1.66-1.71,1.61c-0.92-0.11,0.02-1.09-0.22-1.67
	C22.95,42.44,23.59,42.46,24.23,42.48z"/>
<path class="st4" d="M43.93,42c0.8,0.15,1.61,0.3,2.41,0.46C45.5,42.49,44.61,42.77,43.93,42z"/>
<path class="st4" d="M36.44,40.53c0.65,0.15,1.29,0.29,1.94,0.44C37.68,41.06,36.95,41.31,36.44,40.53z"/>
<path class="st4" d="M41.63,41.54c0.58,0.13,1.16,0.25,1.73,0.38C42.68,42.27,42.12,42.05,41.63,41.54z"/>
<path class="st4" d="M26.5,67.98c-0.04-0.05-0.06-0.11-0.07-0.17c0.34,0.12,0.69,0.24,1.03,0.36C27.14,68.11,26.82,68.05,26.5,67.98
	z"/>
<path class="st4" d="M42.95,63.94c0.11-0.17,0.23-0.33,0.34-0.5C43.18,63.61,43.06,63.78,42.95,63.94z"/>
<path class="st4" d="M16.75,55.91c-0.03-0.18-0.07-0.37-0.1-0.55C16.68,55.54,16.72,55.72,16.75,55.91z"/>
<path class="st4" d="M16.83,56.47c-0.02-0.19-0.05-0.37-0.07-0.56C16.78,56.1,16.8,56.29,16.83,56.47z"/>
<path class="st6" d="M42.64,64.19c0.06-0.07,0.12-0.14,0.18-0.21C42.76,64.05,42.7,64.12,42.64,64.19z"/>
<path class="st6" d="M26.24,67.82l-0.04,0.02c0,0-0.04-0.03-0.04-0.03c0-0.07,0.03-0.11,0.1-0.13
	C26.28,67.73,26.27,67.78,26.24,67.82z"/>
<path class="st4" d="M15.65,50.17c-0.01-0.06-0.03-0.13-0.04-0.19c0.03,0.04,0.07,0.08,0.09,0.13
	C15.7,50.12,15.66,50.15,15.65,50.17z"/>
<path class="st0" d="M78.01,56.21c-0.28-0.55-0.57-1.09-0.85-1.64c-0.16-0.29-0.32-0.59-0.48-0.88c-0.1-0.15-0.19-0.31-0.29-0.46
	c-0.29-0.4-0.58-0.81-0.87-1.21c-0.27-0.3-0.53-0.6-0.8-0.9c-0.18-0.21-0.36-0.42-0.54-0.64c-0.44-0.43-0.88-0.87-1.31-1.3
	c-0.13-0.15-0.27-0.3-0.4-0.46c-0.17-0.16-0.34-0.32-0.5-0.47c-0.29-0.25-0.58-0.5-0.87-0.74c-0.1-0.08-0.21-0.16-0.31-0.25
	c-0.53-0.36-1.07-0.72-1.6-1.09c-0.08-0.03-0.16-0.07-0.23-0.1c-0.94-0.47-1.89-0.95-2.83-1.42c-0.08-0.03-0.16-0.07-0.24-0.1
	c-1.35-0.69-2.7-1.38-4.05-2.07c0.02-0.06,0.02-0.12-0.01-0.18c3.88-1.18,7.87-1.65,11.92-1.77c0.63,1.17,1.19,2.37,1.91,3.48
	c0.35,0.55,0.27,1.69,1.41,1.42c0.45-0.11,1.11-0.32,0.88-1c-0.52-1.56-1.12-3.09-2.41-4.21c1.55-0.07,3.14,0.03,4.66-0.24
	c2.18-0.39,2.28,0.67,2.25,2.39c-0.07,4.86-0.58,9.62-2.5,14.14c-0.22,0.52-0.67,0.94-1.02,1.4c-0.09-0.09-0.19-0.18-0.29-0.27
	C78.42,57.16,78.22,56.69,78.01,56.21z"/>
<path class="st1" d="M75.51,40.23c1.29,1.12,1.89,2.66,2.41,4.21c0.23,0.69-0.44,0.9-0.88,1c-1.13,0.27-1.05-0.87-1.41-1.42
	c-0.71-1.11-1.28-2.31-1.91-3.48c0.04-0.03,0.09-0.04,0.15-0.02c0.15-0.07,0.31-0.15,0.46-0.22C74.73,40.28,75.12,40.25,75.51,40.23
	z"/>
<path class="st5" d="M90.78,46.93c0.07,0.08,0.14,0.15,0.21,0.23c0.16,0.49,0.32,0.99,0.49,1.48c-0.35-0.01-0.79,0.1-1.04-0.07
	c-2.33-1.58-4.1-0.81-5.6,1.25c-0.08-0.07-0.17-0.15-0.25-0.22c0.02-0.13,0.04-0.27,0.05-0.4c0.07-0.2,0.13-0.39,0.2-0.59
	c0.12-0.34,0.24-0.68,0.36-1.02c0.01-0.05-0.01-0.09-0.05-0.11C86.89,45.89,88.8,46,90.78,46.93z"/>
<path class="st0" d="M74.34,40.31c-0.15,0.07-0.31,0.15-0.46,0.22C74.03,40.46,74.19,40.38,74.34,40.31z"/>
<path class="st0" d="M78.94,58.1c0,0-0.03,0.02-0.03,0.02C78.92,58.12,78.94,58.1,78.94,58.1z"/>
<path class="st6" d="M70.52,56.29c0.13,0,0.26,0.01,0.39,0.01c1.28,0.44,2.56,0.88,3.83,1.32c0,0,0.01,0.01,0.01,0.01
	c0.7,1.25,1.4,2.5,2.1,3.76c-0.78,0.85-1.56,1.7-2.34,2.54c-0.05,0-0.1,0.02-0.14,0.06c-3.02,2.05-6.32,3.02-9.98,2.69
	c1.05-1.38-0.44-2.86,0.16-4.26c0-0.13,0.01-0.27,0.01-0.4C65.31,58.83,66.66,56.25,70.52,56.29z"/>
<path class="st6" d="M59.98,65.5c0.08,0.03,0.16,0.07,0.24,0.1C60.14,65.56,60.06,65.53,59.98,65.5z"/>
<path class="st0" d="M17.33,40.05c-1.11-0.58-2.21-1.17-3.32-1.75c1.03-0.39,2.2-0.58,3.05-1.21c2.13-1.59,1.41-4.3,2.25-6.42
	c0.23-0.57,0.4-1.17,0.6-1.75c0.11,0.64,0.27,1.28,0.31,1.93c0.09,1.58,0.13,3.17,0.18,4.75c-0.14,0.75-0.28,1.49-0.42,2.24
	c0.58-0.43,1.17-0.86,1.75-1.3c-0.12-0.16-0.24-0.32-0.36-0.48c1.49,0.41,2.98,0.82,4.46,1.24c0.09,0.03,0.15,0.15,0.23,0.23
	c-0.19,0.09-0.37,0.2-0.57,0.27c-1.69,0.58-3.38,1.15-5.07,1.72C19.39,39.72,18.23,39.16,17.33,40.05z"/>
<path class="st7" d="M79.35,77.79c-0.39,0-0.78,0.01-1.17,0.01c-0.5,0.29-1.01,0.58-1.51,0.87c-0.67,3.35-0.73,6.74-0.57,10.14
	c2.34,0.11,3.82-1.41,5.33-2.85c0.09-2.43,0.16-4.85,0.28-7.27c0.01-0.23,0.36-0.44,0.55-0.66c0.03-0.05,0.02-0.09-0.02-0.13
	C81.28,77.87,80.31,77.83,79.35,77.79z"/>
<path class="st7" d="M16.86,42.87c-0.02-0.13-0.04-0.26-0.07-0.39c-0.68-0.25-0.82-0.82-0.82-1.46c-0.07-0.02-0.13-0.05-0.2-0.07
	c-0.12,0.15-0.24,0.31-0.37,0.46c-0.18,0.36-0.36,0.72-0.54,1.08c0.01,0.14,0.01,0.29,0.02,0.43c0.04,0.14,0.08,0.27,0.12,0.41
	c0,0.17,0,0.33,0,0.5C16.1,44.44,16.79,44.26,16.86,42.87z"/>
<polygon class="st7" points="47.52,42.93 47.53,42.93 47.53,42.94 "/>
<path class="st7" d="M19.95,42.58c0.16-1.02,0.31-2.05,0.47-3.07c-1.03,0.2-2.18-0.35-3.09,0.54c0.31,0.96,0.63,1.92,0.94,2.88
	C18.83,42.81,19.39,42.7,19.95,42.58z"/>
<path class="st0" d="M18.27,42.93c0.56-0.12,1.12-0.23,1.68-0.35c-0.01,0.19-0.01,0.38-0.04,0.57c-0.22,1.26-0.46,2.51-0.69,3.77
	C18.91,45.59,18.59,44.26,18.27,42.93z"/>
<path class="st1" d="M21.37,36.05c0.12,0.16,0.24,0.32,0.36,0.48c-0.58,0.43-1.17,0.86-1.75,1.3c0.14-0.75,0.28-1.49,0.42-2.24
	C20.72,35.74,21.04,35.9,21.37,36.05z"/>
<path class="st4" d="M16.8,42.49c-0.68-0.25-0.82-0.82-0.82-1.46C16.87,41.16,16.77,41.86,16.8,42.49z"/>
<path class="st0" d="M26.06,36.25c0.27,0.06,0.55,0.12,0.82,0.17C26.61,36.37,26.33,36.31,26.06,36.25z"/>
<path class="st0" d="M21.78,33.15c0.02,0.1,0.04,0.2,0.06,0.29C21.82,33.34,21.8,33.24,21.78,33.15z"/>
<path class="st5" d="M11.35,54.79c-0.22-0.17-0.67-0.43-0.64-0.51c0.47-1.23,1.62-1.22,2.63-1.23c0.79-0.01,1.76-0.28,2.32,0.67
	C14.26,54.07,12.86,54.41,11.35,54.79z"/>
<path class="st6" d="M15.99,52.66c0.04,0.14,0.07,0.28,0.11,0.42C16.06,52.94,16.02,52.8,15.99,52.66z"/>
<path class="st6" d="M15.63,50.93c0.05,0.26,0.1,0.52,0.15,0.78C15.73,51.44,15.68,51.18,15.63,50.93z"/>
<path class="st6" d="M15.85,52.04c0.01,0.09,0.03,0.17,0.04,0.26c-0.03-0.06-0.06-0.11-0.07-0.17
	C15.81,52.11,15.84,52.07,15.85,52.04z"/>
<path class="st5" d="M88.97,50.59c0.45,0.28,0.92,0.56,1.4,0.85c-1.3,0.53-2.59,1.09-3.91,1.55c-0.14,0.05-0.72-0.51-0.67-0.66
	C86.24,50.81,87.78,51.24,88.97,50.59z"/>
<path class="st0" d="M78.96,71.21c0.12,0.04,0.23,0.08,0.35,0.12C79.2,71.29,79.08,71.25,78.96,71.21z"/>
<path class="st0" d="M80.61,71.45c0.14,0.02,0.28,0.04,0.42,0.06C80.9,71.49,80.76,71.47,80.61,71.45z"/>
<path class="st1" d="M85.2,47.59c-0.12,0.34-0.24,0.68-0.36,1.02C84.96,48.28,85.08,47.93,85.2,47.59z"/>
<path class="st6" d="M25.97,67.74c-0.21-0.1-0.41-0.21-0.62-0.31C25.56,67.53,25.76,67.64,25.97,67.74z"/>
<path class="st4" d="M70.91,68.75c1.28-0.64,2.57-1.27,3.85-1.91C73.68,67.88,72.37,68.46,70.91,68.75z"/>
<path class="st4" d="M68.59,69.18c0.64-0.87,1.55-0.28,2.32-0.44C70.14,68.89,69.36,69.03,68.59,69.18z"/>
<path class="st4" d="M66.89,69.2c0.05-0.05,0.11-0.06,0.17-0.01c0,0-0.08,0.03-0.08,0.03L66.89,69.2z"/>
<path class="st6" d="M77.05,61.3c0.07-0.06,0.13-0.13,0.2-0.19C77.19,61.17,77.12,61.24,77.05,61.3z"/>
<path class="st6" d="M77.79,60.31c0.06-0.07,0.11-0.14,0.17-0.2C77.9,60.17,77.84,60.24,77.79,60.31z"/>
<path class="st6" d="M37.47,69.05c-0.21,0.03-0.42,0.05-0.63,0.08C37.05,69.11,37.26,69.08,37.47,69.05z"/>
<path class="st6" d="M41.04,68.32c-0.19,0.05-0.38,0.09-0.58,0.14C40.65,68.42,40.84,68.37,41.04,68.32z"/>
<path class="st6" d="M41.44,68.16c-0.08,0.04-0.17,0.07-0.25,0.11C41.27,68.23,41.35,68.2,41.44,68.16z"/>
<path class="st6" d="M36.45,66.25c-4.32,0.23-8.55,0.02-12.27-2.6c0.33-1.72,1.87-3.09,1.45-5.03c1.31,1.49,1.3-0.45,1.92-0.75
	C34.84,57.18,37.61,59.79,36.45,66.25z"/>
<path class="st3" d="M27.56,57.87c-0.62,0.29-0.61,2.23-1.92,0.75c-0.65-1.28,0.25-3.12-1.45-4.02c-0.63-0.51-1.91-0.49-1.78-1.57
	c0.12-0.99,1.34-0.88,2.05-1.29c1.47-0.85,0.92-2.57,1.59-3.76c0.25-0.45,0.58-0.87,0.87-1.3c0.23,0.17,0.46,0.35,0.69,0.52
	c0.54,2.25,0.07,4.87,3.24,5.93c1.24,0.41-0.19,1.27-0.73,1.37C28.15,54.84,27.83,56.31,27.56,57.87z"/>
<path class="st5" d="M37.91,45.19c2.41,0.27,3.62,1.64,4.4,3.43c0.12,0.28-0.2,0.97-0.51,1.15c-0.28,0.16-0.98,0.02-1.2-0.24
	c-2.12-2.41-3.74-1.75-5.17,0.71c-0.29,0.49-0.67,1.1-1.32,0.77c-0.35-0.18-0.76-0.84-0.68-1.17
	C34.05,47.34,35.88,46.02,37.91,45.19z"/>
<path class="st5" d="M41.21,58c0,0.76,0.06,1.53-0.02,2.29c-0.07,0.67-0.32,1.43-1.13,1.43c-0.74,0-1.28-0.45-1.34-1.32
	c-0.09-1.27-0.31-2.53-0.35-3.8c-0.03-1.04,0-2.47,1.18-2.6c1.5-0.16,1.75,1.18,1.68,2.46c-0.03,0.51,0.04,1.02,0.06,1.53
	C41.26,58,41.23,58,41.21,58z"/>
<path class="st6" d="M39.33,65.86c-0.7,0.12-1.4,0.25-2.1,0.37C37.93,66.11,38.63,65.98,39.33,65.86z"/>
<path class="st6" d="M41.78,64.88c-0.3,0.15-0.6,0.3-0.89,0.44C41.19,65.17,41.49,65.03,41.78,64.88z"/>
<path class="st6" d="M40.76,65.41c-0.21,0.09-0.41,0.18-0.62,0.27C40.34,65.59,40.55,65.5,40.76,65.41z"/>
<path class="st6" d="M39.75,65.8c-0.14,0.02-0.28,0.04-0.42,0.06C39.47,65.84,39.61,65.82,39.75,65.8z"/>
<path class="st6" d="M23.96,63.45c0.06,0.05,0.12,0.11,0.18,0.16C24.08,63.56,24.02,63.51,23.96,63.45z"/>
<path class="st5" d="M56.64,50.35c-0.09-0.52-0.19-1.05-0.28-1.57c0,0,0.01-0.05,0.01-0.05c0.12-0.35,0.24-0.7,0.36-1.05
	c0.58-0.7,1.16-1.4,1.74-2.1c0.13-0.06,0.26-0.12,0.38-0.19c0.25-0.1,0.5-0.2,0.76-0.29c0.13-0.03,0.26-0.06,0.39-0.08
	c0.38,0,0.76,0,1.14,0c0.19,0.07,0.38,0.13,0.57,0.2c0.76,0.57,1.53,1.14,2.29,1.7c0.07,0.13,0.14,0.25,0.2,0.38
	c0.16,0.44,0.31,0.89,0.47,1.33c0.03,0.13,0.06,0.26,0.09,0.39c-0.07,0.99-0.2,1.92-1.59,1.29c-0.16-0.31-0.32-0.61-0.49-0.92
	c-0.13-0.89-0.52-1.53-1.53-1.55c-0.2,0-0.39,0-0.59,0.01c-1.07,0.12-1.52,0.91-1.91,1.77C58.23,50.57,57.68,51.13,56.64,50.35z"/>
<path class="st5" d="M59.16,55.91c0.03-0.19,0.07-0.37,0.1-0.56c0.03-0.13,0.06-0.26,0.09-0.39c0.28-0.39,0.56-0.79,0.83-1.18
	c0.13-0.02,0.26-0.03,0.39-0.05c0.38,0.15,0.77,0.31,1.15,0.46c0.06,0.13,0.12,0.26,0.18,0.39c0.03,0.13,0.06,0.25,0.08,0.38
	c0.03,0.26,0.06,0.52,0.09,0.78c0.03,0.89,0.06,1.78,0.1,2.67c0,0.45,0,0.9,0,1.35c-0.04,0.19-0.07,0.37-0.11,0.56
	c-0.03,0.2-0.06,0.39-0.09,0.59c-0.21,0.32-0.42,0.65-0.64,0.97c-0.32-0.01-0.64-0.03-0.96-0.04c-0.17-0.07-0.33-0.13-0.5-0.2
	c-0.14-0.31-0.28-0.63-0.42-0.94c-0.03-0.19-0.06-0.37-0.08-0.56c-0.04-0.39-0.07-0.77-0.11-1.16c-0.03-0.25-0.06-0.5-0.09-0.75
	C59.17,57.44,59.16,56.68,59.16,55.91z"/>
<g>
	<path class="st8" d="M59.4,67.81c1.35,0.86,2.83,1.27,4.42,1.35C62.35,68.71,60.88,68.26,59.4,67.81z"/>
	<path class="st8" d="M80.27,62.65c-0.25,0.01-0.5,0.01-0.75,0.02c-0.04,0.04-0.07,0.09-0.1,0.14c-0.04,0.06-0.09,0.13-0.13,0.19
		l-0.01,0.02c-0.11,0.14-0.22,0.27-0.33,0.41c-0.11,0.15-0.23,0.29-0.34,0.44c-0.06,0.06-0.11,0.12-0.17,0.17l-0.02,0.01
		c-0.27,0.3-0.55,0.6-0.82,0.89c-0.12,0.14-0.23,0.28-0.35,0.42c-0.52,2.73-2.51,4.03-4.94,4.22c-2.69,0.21-5.42-0.18-8.13-0.31
		c-0.11-0.02-0.22-0.04-0.33-0.06c-1.59-0.09-3.07-0.49-4.42-1.35l-0.01-0.01c-0.18-0.07-0.36-0.15-0.54-0.22
		c-0.05-0.03-0.1-0.05-0.16-0.07c-0.07-0.04-0.14-0.09-0.22-0.13c-0.04-0.03-0.09-0.06-0.13-0.09c-0.11-0.05-0.22-0.11-0.32-0.16
		c-0.12-0.09-0.25-0.18-0.37-0.27c-0.16-0.09-0.32-0.19-0.48-0.28c-0.07-0.06-0.14-0.12-0.21-0.18c-0.08,0.01-0.15,0.02-0.23,0.04
		c0-0.02,0.01-0.05,0.01-0.07c0.07-0.01,0.14-0.02,0.2-0.03c-0.06-0.06-0.13-0.12-0.19-0.18c0,0.02,0,0.03-0.01,0.05
		c-0.7-0.88-1.4-1.76-2.1-2.64c-0.07-0.19-0.14-0.38-0.21-0.57c-0.05-0.13-0.1-0.27-0.14-0.4c-0.02-0.12-0.05-0.25-0.07-0.37l0,0
		c-0.48-2.49-0.87-5.23-4.47-3.26c-1.05,0.58-1.78,1.74-2.65,2.63l0.02,0c-0.04,0.08-0.07,0.16-0.11,0.25
		c-0.04,0.14-0.07,0.28-0.11,0.42c0,0,0,0,0,0c-0.95,1.31-1.21,3.09-2.71,4.04l-0.01,0c-0.1,0.16-0.19,0.32-0.29,0.48
		c-0.44,0.32-0.89,0.64-1.33,0.96l0,0c-0.12,0-0.24-0.01-0.36-0.01c-0.1,0.03-0.2,0.06-0.3,0.09c-0.15,0.11-0.3,0.23-0.45,0.34
		c-0.08,0.04-0.17,0.07-0.25,0.11c-0.05,0.01-0.1,0.03-0.15,0.06c-0.19,0.05-0.38,0.09-0.58,0.14c0,0-0.07,0.02-0.07,0.02
		c0-0.02-0.01-0.05-0.01-0.07c-0.54,0.1-1.08,0.19-1.63,0.29c0.25,0.03,0.49,0.06,0.74,0.09c0.26-0.04,0.53-0.08,0.79-0.12
		c0.04-0.02,0.09-0.03,0.14-0.03c0,0.02,0.01,0.05,0.01,0.07c0,0,0,0,0,0c-0.05,0-0.1,0.01-0.14,0.03
		c-0.26,0.04-0.53,0.08-0.79,0.12c-0.25-0.03-0.49-0.06-0.74-0.09c-0.11,0.02-0.23,0.04-0.34,0.06c-0.21,0.12-0.42,0.23-0.63,0.35
		c0-0.03,0-0.05,0-0.08c0.21-0.11,0.41-0.23,0.62-0.34c-0.21,0.05-0.42,0.1-0.63,0.15c0,0.02,0,0.05,0,0.07
		c-0.1,0.02-0.21,0.05-0.31,0.07c-0.21,0.03-0.42,0.05-0.63,0.08c-1.07,0.05-2.14,0.1-3.21,0.14c-0.15,0.13-0.29,0.27-0.44,0.4
		c-0.12,0.01-0.25,0.02-0.37,0.02c-0.13,0.06-0.26,0.12-0.38,0.17c-0.13,0.01-0.25,0.01-0.38,0.02c-0.11,0.11-0.22,0.21-0.33,0.32
		c0.11-0.11,0.22-0.21,0.33-0.32c-0.19,0-0.39,0.01-0.58,0.01c-0.13-0.01-0.25-0.02-0.38-0.02c-0.7-0.12-1.4-0.25-2.1-0.37
		c-0.42-0.15-0.84-0.29-1.26-0.44c0,0,0,0,0,0c-0.41-0.36-0.83-0.73-1.24-1.09c-0.04-0.05-0.06-0.11-0.07-0.17
		c-0.07,0-0.13,0.01-0.2,0.01l-0.04,0.02c0,0-0.04-0.03-0.04-0.03c-0.06-0.02-0.13-0.05-0.19-0.07c-0.21-0.1-0.41-0.21-0.62-0.31
		c-0.11-0.03-0.23-0.05-0.34-0.08c0,0,0.02-0.07,0.02-0.07c-0.07-0.04-0.13-0.08-0.2-0.12c-0.14-0.05-0.28-0.11-0.42-0.16
		c-0.07-0.06-0.13-0.12-0.2-0.18c-0.13,0.01-0.26,0.01-0.38,0.02c-0.04,0.3-0.09,0.59-0.13,0.89c0.04-0.29,0.09-0.59,0.13-0.89
		c-0.04-0.09-0.09-0.18-0.13-0.26c0,0-0.03-0.01-0.03-0.01c-0.07-0.04-0.14-0.08-0.21-0.12c-0.05-0.03-0.09-0.07-0.14-0.1
		c-0.05-0.05-0.1-0.1-0.15-0.15l-0.06,0.02l0,0c-0.34-0.28-0.68-0.55-1.01-0.83c0.08,0.47,0.17,0.94,0.25,1.41
		c0.02,0.19,0.04,0.39,0.06,0.58c0.04,0.25,0.08,0.51,0.11,0.76c0.08,0.32,0.17,0.64,0.25,0.96c0.58,1.19,1.17,2.39,1.75,3.58
		c0.17,0.2,0.35,0.41,0.52,0.61c0.17,0.12,0.35,0.25,0.52,0.37l0.02,0.06l0.07,0c0.35,0.29,0.71,0.58,1.06,0.88l0.03,0.07l0.07,0.01
		c2.47,1.84,5.05,2.64,7.89,0.81c0.53-0.31,1.06-0.61,1.58-0.92c0.24-0.21,0.48-0.42,0.72-0.63c-0.05,0.23-0.1,0.46-0.14,0.69
		c-0.21,0.51-0.43,1.03-0.64,1.54c-0.06,0.14-0.12,0.27-0.19,0.41c-0.31,0.6-0.63,1.21-0.94,1.81c-0.12,0.16-0.24,0.31-0.35,0.47
		c-0.07,0.1-0.15,0.2-0.22,0.31c-0.12,0.15-0.24,0.31-0.36,0.46c-0.89,0.84-1.78,1.67-2.67,2.51c-0.17,0.11-0.33,0.22-0.5,0.33
		c-0.09,0.04-0.18,0.08-0.27,0.11c-2.31,0.75,0.26,1.18,0.12,1.79c0,0,0.01,0.05,0.01,0.05c0.03,0.14,0.07,0.27,0.1,0.41
		c0.31,0.16,0.61,0.31,0.92,0.47c1.66,0.73,3.32,1.46,4.97,2.2c0.22,0.1,0.38,0.31,0.57,0.46c-0.2,0.13-0.38,0.29-0.6,0.38
		c-2.12,0.93-4.24,1.84-6.36,2.76c0.47,0.22,0.95,0.45,1.42,0.67c0.14,0.05,0.28,0.11,0.43,0.16c0.18,0.06,0.35,0.12,0.53,0.19
		c0.64,0.28,1.28,0.57,1.92,0.85c0.12,0.03,0.25,0.07,0.37,0.1c0.26,0.1,0.51,0.2,0.77,0.3c0.32,0.09,0.64,0.17,0.95,0.26
		c0.1,0.06,0.21,0.11,0.31,0.17c0.28,0.09,0.56,0.17,0.83,0.26c0.32,0.09,0.64,0.18,0.96,0.28c0.25,0.08,0.51,0.16,0.76,0.24
		c0.4,0.14,0.79,0.28,1.19,0.42c0.5,0.14,0.99,0.28,1.49,0.41c0.13,0.02,0.26,0.04,0.39,0.06c0.13,0.04,0.25,0.07,0.38,0.11
		c0.51,0.09,1.03,0.17,1.54,0.26c0.12,0.03,0.25,0.05,0.37,0.08c0.26,0.03,0.52,0.07,0.78,0.1c0.19,0.04,0.37,0.08,0.56,0.12
		c0.32,0.03,0.64,0.06,0.97,0.08c0.25,0.04,0.5,0.09,0.76,0.13c0.13,0.02,0.26,0.05,0.39,0.07c0.57,0,1.14,0,1.7,0
		c0.19-0.03,0.39-0.06,0.58-0.09c0.32-0.03,0.63-0.07,0.95-0.11c0.19-0.03,0.39-0.06,0.58-0.09c0.19-0.05,0.37-0.09,0.56-0.14
		c0.13-0.02,0.27-0.04,0.4-0.06c0.13-0.03,0.25-0.06,0.38-0.08c0.19-0.07,0.39-0.14,0.58-0.21c0.35-0.11,0.7-0.21,1.05-0.32
		c0.16-0.05,0.32-0.1,0.48-0.15c0.18-0.07,0.36-0.13,0.53-0.2c0.08-0.05,0.16-0.09,0.23-0.14c0.34-0.16,0.69-0.32,1.03-0.48
		c0.1-0.04,0.2-0.08,0.3-0.12c0.19-0.1,0.38-0.2,0.57-0.3c0.19-0.1,0.38-0.19,0.58-0.29c0.15-0.08,0.3-0.16,0.45-0.24
		c0.1-0.04,0.21-0.09,0.31-0.13c0.16-0.08,0.33-0.16,0.49-0.24c0.15-0.09,0.31-0.18,0.46-0.27c0.17-0.1,0.34-0.2,0.51-0.3
		c0.48-0.38,0.96-0.76,1.44-1.15c0.54-0.39,1.07-0.79,1.61-1.18c-0.41-0.27-0.83-0.54-1.24-0.81c0,0-0.08-0.01-0.08-0.01
		c-0.32-1.21-3.33,0.04-2.24-2.45c0,0,0.01,0,0.01,0c0.67-0.32,1.33-0.64,2-0.96c0.07-0.11,0.13-0.22,0.2-0.34
		c0.1-0.08,0.2-0.15,0.3-0.23c0.82-0.42,1.64-0.83,2.46-1.25c0.39-0.18,0.78-0.36,1.17-0.54c0.19-0.1,0.39-0.21,0.58-0.31
		c0.98-0.66-0.16-0.67-0.3-0.99c-0.22-0.23-0.45-0.46-0.67-0.7c-0.26-0.27-0.52-0.54-0.78-0.8c-0.11-0.16-0.21-0.33-0.32-0.49
		c0,0,0.01-0.06,0.01-0.06l-0.06-0.02c-0.12-0.19-0.25-0.38-0.37-0.57c-0.07-0.06-0.13-0.13-0.2-0.19c-0.4-1.27-0.79-2.54-1.19-3.81
		c0-0.27-0.01-0.53-0.01-0.8c0.15-0.03,0.3-0.06,0.44-0.08c0.51,0.34,1.02,0.69,1.54,1.03c0.12,0.09,0.24,0.18,0.37,0.27
		c0,0,0.05,0.02,0.05,0.02c0.69,0.26,1.38,0.52,2.07,0.78c0.13,0.03,0.25,0.07,0.38,0.1c0.57,0.16,1.15,0.32,1.72,0.48
		c0.7,0.01,1.4,0.03,2.1,0.04c0.5-0.14,0.99-0.27,1.49-0.41c-0.16-0.1-0.31-0.15-0.45-0.16c0.14,0.01,0.28,0.06,0.45,0.16
		c0.21-0.09,0.42-0.18,0.63-0.27c0.24-0.12,0.47-0.23,0.71-0.35c0,0,0.05-0.01,0.05-0.01c0.44-0.34,0.89-0.68,1.33-1.01
		c0.32-0.24,0.64-0.48,0.95-0.72c0.13-0.39,0.27-0.79,0.4-1.18l0,0c0.17-0.51,0.35-1.02,0.52-1.53c0.15-0.27,0.3-0.53,0.45-0.8
		c0.55-1.37,1.11-2.74,1.66-4.12C80.4,65.64,80.34,64.15,80.27,62.65z M47.3,67.62C47.3,67.62,47.3,67.62,47.3,67.62
		c-0.03-0.01-0.06-0.03-0.1-0.04C47.24,67.59,47.27,67.61,47.3,67.62z M45.76,67.71C45.76,67.71,45.76,67.71,45.76,67.71
		c-0.01-0.03-0.02-0.07-0.04-0.1C45.74,67.64,45.75,67.68,45.76,67.71z M45.48,68.69c0.13-0.08,0.25-0.17,0.38-0.25
		c2.26,0.14,1.36,2.61,2.59,3.51c0.3,0.22,0.55,0.49,0.83,0.73c0.13,0.08,0.25,0.17,0.38,0.25c0.06,0.01,0.12,0.02,0.19,0.03
		c0.14-0.04,0.28-0.07,0.42-0.11c2.34-0.39,3.43-2.32,4.77-3.92c0.38,0.06,0.77,0.13,1.15,0.19c0.93,1.01-0.27,1.67-0.41,2.5
		c-0.13,0.21-0.26,0.41-0.39,0.62c-0.99,1.33-2.25,2.3-3.8,2.91c-0.19,0.05-0.39,0.09-0.58,0.14c-0.65-0.01-1.31-0.02-1.96-0.02
		c-0.23-0.12-0.46-0.25-0.69-0.37c-1.63-0.76-2.29-2.26-2.91-3.79c-0.04-0.13-0.08-0.27-0.12-0.4
		C45.38,70.03,45.43,69.36,45.48,68.69z M44.62,68.18C44.62,68.18,44.62,68.18,44.62,68.18c-0.15-0.06-0.14-0.06-0.21,0.08
		C44.47,68.12,44.46,68.11,44.62,68.18z M42.63,67.88L42.63,67.88l-0.02-0.03C42.61,67.86,42.63,67.88,42.63,67.88z M58.24,90.39
		c-4.89,3.94-17.08,2.91-19.88-1.68c0.08-0.03,0.15-0.05,0.23-0.08c0,0,0,0,0,0c6.31,3.13,12.79,2.91,19.37,1.03
		c0.24-0.07,0.53,0.08,0.8,0.12C58.58,89.99,58.44,90.23,58.24,90.39z M77.08,71.97C77.08,71.97,77.08,71.97,77.08,71.97
		c0.05-0.12,0.06-0.14,0-0.17C77.14,71.84,77.13,71.86,77.08,71.97z"/>
</g>
<path class="st8" d="M16.71,56.67c-0.11-0.64-0.21-1.29-0.32-1.93c0-0.19,0-0.37-0.01-0.56c-0.02-0.12-0.04-0.24-0.06-0.36
	c-0.08-0.25-0.15-0.5-0.23-0.74c-0.04-0.14-0.07-0.28-0.11-0.42c-0.03-0.12-0.06-0.24-0.09-0.36c-0.03-0.06-0.06-0.11-0.07-0.17
	c-0.01-0.02,0.02-0.06,0.03-0.09c-0.02-0.11-0.05-0.23-0.07-0.34c-0.05-0.26-0.1-0.52-0.15-0.78l0-0.01
	c-0.06-0.31-0.12-0.63-0.18-0.94c-0.04-0.19-0.07-0.39-0.11-0.58c-1.69-0.44-2.17,1.06-3.06,1.91c-0.23,0.22-0.54,0.36-0.82,0.54
	c-0.12-0.39-0.47-0.96-0.33-1.14c1.01-1.29,1.82-2.94,3.91-2.67c-0.07-1.32-0.14-2.65-0.21-3.97c-1.36-0.24-2.43,0.32-3.32,1.27
	C7.5,49.65,8.14,55.37,13.09,59.1c1.06,0.8,2.2,1.47,3.31,2.2c0.08-1.28,0.15-2.56,0.23-3.84c-0.01-0.05-0.03-0.09-0.04-0.14
	c0-0.02,0.03-0.04,0.04-0.06c0.04-0.08,0.07-0.16,0.11-0.23c-0.04-0.07-0.02-0.12,0.04-0.17C16.75,56.8,16.73,56.73,16.71,56.67z
	 M11.35,54.79c-0.22-0.17-0.67-0.43-0.64-0.51c0.47-1.23,1.62-1.22,2.63-1.23c0.79-0.01,1.76-0.28,2.32,0.67
	C14.26,54.07,12.86,54.41,11.35,54.79z"/>
<path class="st8" d="M91.94,48.98c-0.15-0.11-0.31-0.23-0.46-0.34c-0.35-0.01-0.79,0.1-1.04-0.07c-2.33-1.58-4.1-0.81-5.6,1.25
	c-0.12,0.66-0.24,1.31-0.37,1.97c0.07,0.18,0.14,0.35,0.21,0.53c0.03,0.13,0.05,0.25,0.08,0.38c0.04,0.19,0.08,0.37,0.12,0.56
	c0.03,0.19,0.07,0.39,0.1,0.58c0.03,0.12,0.07,0.25,0.1,0.37c0.02,0.26,0.05,0.53,0.07,0.79c0.03,0.18,0.06,0.36,0.09,0.54
	c0.03,0.42,0.05,0.84,0.08,1.26c0,1.94,0,3.89,0,5.84c0.11,0.46,0.28,0.85,0.87,0.57c0.07-0.05,0.14-0.1,0.21-0.15
	c0.11-0.08,0.22-0.16,0.34-0.24c0.09-0.09,0.18-0.18,0.26-0.26c0.15-0.17,0.3-0.34,0.45-0.51c0.11-0.14,0.22-0.29,0.33-0.44
	c0.09-0.11,0.18-0.22,0.26-0.32c0.22-0.29,0.45-0.57,0.67-0.86c0.08-0.1,0.16-0.2,0.23-0.31c0.76-1.41,1.52-2.81,2.28-4.22
	c0.05-0.11,0.1-0.22,0.15-0.34c0.03-0.13,0.05-0.25,0.08-0.38c0.03-0.13,0.06-0.26,0.09-0.38c0.05-0.28,0.1-0.56,0.16-0.84
	c0.02-0.12,0.04-0.23,0.06-0.35c0.08-0.69,0.17-1.39,0.25-2.08c0.02-0.37,0.04-0.75,0.06-1.12C92.03,49.93,91.98,49.46,91.94,48.98z
	 M86.45,53c-0.14,0.05-0.72-0.51-0.67-0.66c0.46-1.54,2-1.11,3.19-1.75c0.45,0.28,0.92,0.56,1.4,0.85
	C89.06,51.98,87.77,52.54,86.45,53z"/>
<path class="st8" d="M90.78,46.93c0.07,0.08,0.14,0.15,0.21,0.23c0.09-0.08,0.19-0.17,0.28-0.25c-0.06-0.09-0.11-0.18-0.17-0.28
	c-1.16-2.53-3.24-3.29-5.85-3.03c-0.04,1.29-0.07,2.59-0.11,3.88C86.89,45.89,88.8,46,90.78,46.93z"/>
<path class="st8" d="M36.44,40.53c0.65,0.15,1.29,0.29,1.94,0.44c0.12,0.02,0.25,0.03,0.37,0.05c0.07-0.03,0.13-0.07,0.2-0.1
	c0.19,0.03,0.38,0.06,0.57,0.08c0.38,0.13,0.77,0.26,1.15,0.38c0.32,0.05,0.64,0.1,0.96,0.15c0.58,0.13,1.16,0.25,1.73,0.38
	c0.19,0.03,0.38,0.05,0.56,0.08c0.8,0.15,1.61,0.3,2.41,0.46c0,0,0.05,0,0.05,0s0.02,0.05,0.02,0.05c0.37,0.14,0.74,0.29,1.11,0.43
	c0.28,0.63,0.56,1.26,0.85,1.88c0.01,0.19,0.02,0.38,0.03,0.57l0,0c0.03,0.51,0.07,1.03,0.1,1.54c0.03,0.57,0.07,1.14,0.1,1.71
	c0.23,0.45,0.36,0.9,0.36,1.35c0-0.45-0.13-0.9-0.36-1.35c-0.01,0.89-0.03,1.79-0.04,2.68c-0.02,0.38-0.04,0.76-0.06,1.14
	c0,0.13,0,0.26,0,0.39c0.01,0.19,0.02,0.38,0.02,0.57c0.23,1.01-1.52,3.42,1.71,2.36c0.53-0.17,1.26,0.25,1.89,0.42
	c0.42,0.12,0.82,0.3,0.81-0.42c-0.03-2.06-0.04-4.11-0.06-6.17c0.01-0.13,0.02-0.26,0.03-0.4l0,0c0.06-0.83,0.12-1.66,0.19-2.48
	c0.01-0.19,0.02-0.38,0.03-0.57c-0.03-0.32-0.05-0.63-0.06-0.94c0.01,0.3,0.03,0.62,0.06,0.94c0.19-2.44,1.09-4.41,3.53-5.36
	c-0.16-0.07-0.32-0.15-0.48-0.22c-0.13-0.04-0.27-0.09-0.4-0.13c-0.12-0.05-0.25-0.09-0.38-0.14c-0.33-0.12-0.66-0.23-1-0.35
	c-0.18-0.08-0.36-0.16-0.53-0.24c-0.46-0.18-0.91-0.36-1.37-0.54c-0.25-0.09-0.49-0.18-0.74-0.27c-0.2-0.1-0.4-0.2-0.61-0.3
	c-0.94-0.04-1.89-0.08-2.83-0.11l0,0c0.94,0.04,1.89,0.08,2.83,0.11c-1-0.44-2-0.88-3-1.33c-0.1-0.05-0.2-0.11-0.3-0.16
	c-0.16-0.09-0.33-0.18-0.49-0.26c-0.16-0.1-0.32-0.2-0.47-0.31c-0.16-0.1-0.33-0.2-0.49-0.31c-0.4-0.28-0.81-0.57-1.21-0.85
	c-0.16-0.12-0.33-0.23-0.49-0.35c-0.26-0.19-0.52-0.37-0.78-0.56c-0.25-0.18-0.51-0.36-0.76-0.53c0-0.06-0.04-0.09-0.1-0.07
	c-0.16-0.12-0.31-0.24-0.47-0.35c-0.09-0.07-0.19-0.15-0.28-0.22c-0.66-0.64-1.33-1.28-1.99-1.93c-0.18-0.21-0.36-0.41-0.55-0.62
	c-0.14-0.16-0.29-0.31-0.43-0.47c-0.38-0.39-0.76-0.77-1.14-1.16c-0.26-0.31-0.52-0.63-0.78-0.94c-0.1-0.13-0.2-0.26-0.29-0.39
	c-0.15-0.16-0.3-0.32-0.44-0.48c-0.17-0.23-0.35-0.46-0.52-0.69c-0.22-0.28-0.45-0.57-0.67-0.85c-0.05,0.26-0.09,0.51-0.14,0.77
	c-0.04,0.16-0.08,0.31-0.12,0.47c-0.05,0.19-0.09,0.39-0.14,0.58c-0.04,0.19-0.08,0.38-0.12,0.58c-0.03,0.13-0.06,0.25-0.09,0.38
	c-0.04,0.19-0.08,0.38-0.12,0.57c-0.04,0.13-0.07,0.26-0.11,0.38c-0.02,0.13-0.04,0.26-0.06,0.39c-0.03,0.13-0.06,0.25-0.08,0.38
	c-0.03,0.13-0.07,0.26-0.1,0.39c-0.04,0.13-0.08,0.25-0.12,0.38c-0.09,0.32-0.18,0.64-0.28,0.96c-0.04,0.13-0.08,0.26-0.12,0.38
	c-0.09,0.26-0.17,0.51-0.26,0.77c-0.15,0.51-0.31,1.02-0.46,1.53c-0.19,0.52-0.38,1.05-0.57,1.57c0,0,0,0,0,0
	c-0.26,0.61-0.52,1.22-0.77,1.84c-0.04,0.14-0.07,0.28-0.11,0.41c-0.15,0.32-0.3,0.65-0.45,0.97c1.55,0.32,3.1,0.64,4.65,0.96
	C36.07,40.47,36.26,40.5,36.44,40.53z M53.54,40.72C53.54,40.71,53.54,40.71,53.54,40.72c0.06-0.16,0.06-0.14-0.08-0.21
	C53.6,40.57,53.6,40.56,53.54,40.72z M45.18,36.06c-0.06-0.15-0.05-0.15-0.2-0.09C45.13,35.91,45.12,35.91,45.18,36.06
	C45.18,36.06,45.18,36.06,45.18,36.06z M49.82,47.35c0,0.12,0,0.24,0.01,0.36C49.82,47.59,49.82,47.47,49.82,47.35z M48.32,38.5
	L48.32,38.5c-0.06,0.09-0.11,0.18-0.17,0.28C48.21,38.69,48.27,38.59,48.32,38.5z M49.82,47.27c0.02-1.81,0.52-3.86-2.26-4.33
	C50.34,43.4,49.84,45.45,49.82,47.27z M47.53,42.93L47.53,42.93c0.38-2.11-0.98-1.62-2.06-1.57C46.56,41.31,47.91,40.82,47.53,42.93
	z M45.41,41.36c-0.07,0-0.14,0-0.21,0C45.26,41.36,45.33,41.36,45.41,41.36z M33.96,36.87C33.96,36.87,33.96,36.87,33.96,36.87
	c-0.03,0.05-0.06,0.09-0.09,0.13C33.89,36.96,33.93,36.91,33.96,36.87z M34.76,38.23c-0.71-0.04-1.42-0.07-2.13-0.11l0,0
	C33.34,38.15,34.05,38.19,34.76,38.23z M34.14,38.58c-0.56,0.16-1.13,0.31-1.5-0.45C33.02,38.9,33.58,38.74,34.14,38.58z"/>
<path class="st8" d="M30.12,54.49c-1.97,0.35-2.29,1.82-2.57,3.38c7.29-0.69,10.05,1.91,8.9,8.38c0.26-0.01,0.52-0.01,0.78-0.02
	c0.7-0.12,1.4-0.25,2.1-0.37l0,0c0.14-0.02,0.28-0.04,0.42-0.06c0.13-0.04,0.26-0.08,0.38-0.12c0.21-0.09,0.41-0.18,0.62-0.27
	c0.05-0.02,0.09-0.06,0.14-0.09c0.3-0.15,0.6-0.3,0.89-0.44c0.28-0.18,0.55-0.36,0.83-0.54c-0.01-0.05,0-0.1,0.02-0.14
	c0.06-0.07,0.12-0.14,0.18-0.21c0.04-0.03,0.09-0.04,0.14-0.04c0.11-0.17,0.23-0.33,0.34-0.5c0,0,0.03-0.06,0.03-0.06
	c2.42-5.41,1.56-11.11,1.49-16.75c-0.02-1.23-0.52-1.78-1.71-2.09c-4.37-1.15-8.84-1.41-13.31-1.75c-0.72,1.47-1.44,2.94-2.16,4.4
	c0.54,2.25,0.07,4.87,3.24,5.93C32.09,53.54,30.66,54.39,30.12,54.49z M41.19,60.29c-0.07,0.67-0.32,1.43-1.13,1.43
	c-0.74,0-1.28-0.45-1.34-1.32c-0.09-1.27-0.31-2.53-0.35-3.8c-0.03-1.04,0-2.47,1.18-2.6c1.5-0.16,1.75,1.18,1.68,2.46
	c-0.03,0.51,0.04,1.02,0.06,1.53c-0.03,0-0.05,0-0.08,0C41.21,58.76,41.27,59.53,41.19,60.29z M37.91,45.19
	c2.41,0.27,3.62,1.64,4.4,3.43c0.12,0.28-0.2,0.97-0.51,1.15c-0.28,0.16-0.98,0.02-1.21-0.24c-2.12-2.41-3.74-1.75-5.17,0.71
	c-0.29,0.49-0.67,1.1-1.32,0.77c-0.35-0.18-0.76-0.84-0.68-1.17C34.05,47.34,35.88,46.02,37.91,45.19z"/>
<path class="st8" d="M55.67,50.37c0,1.78-0.01,3.57-0.01,5.35c0.04,0.45,0.08,0.9,0.11,1.35c0.03,0.38,0.06,0.76,0.09,1.14
	c0.22,0.9,0.44,1.8,0.66,2.69c0.03,0.19,0.06,0.37,0.09,0.56c-0.2,1.79,0.97,2.66,2.31,3.42c0.34,0.18,0.68,0.36,1.02,0.53
	c-0.02,0.04-0.01,0.07,0.04,0.09c0.08,0.03,0.16,0.07,0.24,0.1c0.49,0.12,0.99,0.23,1.48,0.35c0.14,0.01,0.28,0.03,0.43,0.04
	c0,0,0,0,0.01,0c0.75,0.23,1.49,0.46,2.24,0.69c1.05-1.38-0.44-2.86,0.16-4.26c0-0.13,0.01-0.27,0.01-0.4
	c-0.31-1.68,0.41-3.37,1.6-4.51c-1.19,1.14-1.92,2.83-1.6,4.51c0.77-3.18,2.12-5.77,5.97-5.73c0.13,0,0.26,0.01,0.39,0.01
	c1.28,0.44,2.56,0.88,3.83,1.32l0.01,0.01c0.34,0.04,0.61,0.25,0.86,0.51c0.12,0.13,0.24,0.28,0.36,0.42
	c0.18,0.22,0.35,0.44,0.54,0.62c-0.19-0.18-0.37-0.4-0.54-0.62c-0.12-0.15-0.24-0.29-0.36-0.42c-0.25-0.26-0.52-0.47-0.86-0.51
	c0.7,1.25,1.4,2.5,2.1,3.76c0.07-0.03,0.14-0.05,0.21-0.08c0.07-0.06,0.13-0.13,0.2-0.19c0.18-0.27,0.36-0.54,0.53-0.8
	c0.06-0.07,0.11-0.14,0.17-0.2c0.15-0.31,0.29-0.61,0.44-0.92c0,0,0,0-0.01,0c0.13-0.2,0.26-0.39,0.39-0.59c0.06,0,0.13,0,0.19-0.01
	c-0.01-0.16-0.01-0.33-0.02-0.49c0,0-0.03,0.02-0.03,0.02c0-0.07-0.01-0.14-0.01-0.2c-0.1-0.09-0.19-0.18-0.29-0.27
	c-0.2-0.48-0.41-0.95-0.61-1.43c-0.28-0.55-0.57-1.09-0.85-1.64c-0.16-0.29-0.32-0.59-0.48-0.88c-0.1-0.15-0.19-0.31-0.29-0.46
	c-0.29-0.4-0.58-0.81-0.87-1.21c-0.27-0.3-0.53-0.6-0.8-0.9c-0.18-0.21-0.36-0.42-0.54-0.64c-0.44-0.43-0.88-0.87-1.31-1.3
	c-0.13-0.15-0.27-0.3-0.4-0.46c-0.17-0.16-0.34-0.32-0.5-0.47c-0.29-0.25-0.58-0.5-0.87-0.74c-0.1-0.08-0.21-0.16-0.31-0.25
	c-0.53-0.36-1.07-0.72-1.6-1.09c-0.08-0.03-0.16-0.07-0.23-0.1c0,0,0,0,0,0c-0.94-0.47-1.88-0.95-2.83-1.42
	c-0.08-0.03-0.16-0.07-0.24-0.1c0,0,0,0,0,0c-1.35-0.69-2.7-1.38-4.05-2.07c-0.68,0.12-1.35,0.25-2.03,0.37
	c-0.19,0.03-0.37,0.06-0.56,0.08c-0.29,0.19-0.67,0.37-1.04,0.55c0.36-0.18,0.74-0.36,1.04-0.55C54.03,43.5,55.99,47.48,55.67,50.37
	z M77.16,59.54c-0.17-0.03-0.31-0.11-0.45-0.2C76.85,59.44,77,59.51,77.16,59.54z M56.26,48.41c0.01,0.03,0.03,0.07,0.04,0.11
	C56.29,48.48,56.27,48.44,56.26,48.41z M56.25,46.3c-0.09,0.17-0.16,0.35-0.23,0.52C56.08,46.65,56.16,46.47,56.25,46.3z
	 M56.46,50.92c-0.04-0.03-0.09-0.06-0.13-0.1C56.37,50.86,56.42,50.89,56.46,50.92C56.46,50.92,56.46,50.92,56.46,50.92z
	 M62.07,60.3c-0.03,0.2-0.06,0.39-0.09,0.59c-0.21,0.32-0.42,0.65-0.64,0.97c-0.32-0.01-0.64-0.03-0.96-0.04
	c-0.17-0.07-0.33-0.13-0.5-0.2h0c-0.14-0.31-0.28-0.63-0.42-0.94c-0.03-0.19-0.06-0.37-0.08-0.56c-0.04-0.39-0.07-0.77-0.11-1.16
	c-0.03-0.25-0.06-0.5-0.09-0.75c0-0.77-0.01-1.53-0.01-2.3c0.03-0.19,0.07-0.37,0.1-0.56c0.03-0.13,0.06-0.26,0.09-0.39
	c0.28-0.39,0.56-0.79,0.83-1.18c0.13-0.02,0.26-0.03,0.39-0.05c0.38,0.15,0.77,0.31,1.15,0.46c0.06,0.13,0.12,0.26,0.18,0.39
	c0.03,0.13,0.06,0.25,0.08,0.38c0.03,0.26,0.06,0.52,0.09,0.78c0.03,0.89,0.06,1.78,0.1,2.67c0,0.45,0,0.9,0,1.35
	C62.14,59.93,62.1,60.11,62.07,60.3z M64.01,65.63c0.27-0.47,0.1-1.23,0.06-1.91C64.11,64.4,64.28,65.16,64.01,65.63z M58.47,45.59
	c0.13-0.06,0.26-0.12,0.38-0.19c0.25-0.1,0.5-0.2,0.76-0.29c0.13-0.03,0.26-0.06,0.39-0.08c0.38,0,0.76,0,1.14,0
	c0.19,0.07,0.38,0.13,0.57,0.2c0.76,0.57,1.53,1.14,2.29,1.7c0.07,0.13,0.14,0.25,0.2,0.38c0.16,0.44,0.31,0.89,0.47,1.33
	c0.03,0.13,0.06,0.26,0.09,0.39c-0.07,0.99-0.2,1.92-1.59,1.29c-0.16-0.31-0.32-0.61-0.49-0.92c-0.13-0.89-0.52-1.53-1.53-1.55
	c-0.2,0-0.39,0-0.59,0.01c-1.07,0.12-1.52,0.91-1.91,1.77c-0.42,0.94-0.98,1.49-2.01,0.72c-0.09-0.52-0.19-1.05-0.28-1.57
	c-0.25-0.3-0.39-0.6-0.45-0.88s-0.04-0.55,0.02-0.82c-0.07,0.27-0.08,0.54-0.02,0.82s0.2,0.57,0.45,0.88l0.01-0.05c0,0,0,0,0,0
	c0.12-0.35,0.24-0.7,0.36-1.05C57.31,46.99,57.89,46.29,58.47,45.59z"/>
<path class="st8" d="M23.67,63.15c0.05,0.07,0.11,0.14,0.16,0.21c0.04,0.03,0.09,0.06,0.13,0.09c0.06,0.05,0.12,0.11,0.18,0.16
	c0,0,0.04,0.04,0.04,0.04c0.33-1.72,1.87-3.09,1.45-5.03c-0.65-1.28,0.25-3.12-1.45-4.02c-0.73,2.16-1.45,4.32-2.18,6.48
	c0.45,0.62,0.9,1.25,1.35,1.87C23.46,63.02,23.57,63.09,23.67,63.15z"/>
<g>
	<path class="st7" d="M23.83,63.37c-0.05-0.07-0.11-0.14-0.16-0.21c-0.04,0.03-0.07,0.07-0.11,0.1c0.02,0.06,0.04,0.12,0.07,0.18
		C23.69,63.41,23.76,63.39,23.83,63.37z"/>
	<path class="st7" d="M85.26,43.6c-0.01-0.54,0.02-1.09-0.05-1.62c-0.26-1.96,1-4.85-2.81-4.72c-0.14,0-0.28,0-0.41-0.01
		c-0.85,0.07-1.81-0.48-2.51,0.45c-0.31-0.01-0.61-0.01-0.92-0.02c-1.46,0.74-3,0.44-4.52,0.38c1.52,0.07,3.06,0.36,4.52-0.38
		c-1.78,0.06-3.57,0.12-5.35,0.18c-0.19,0.02-0.39,0.04-0.58,0.06c0.01,0.06,0.02,0.13,0.03,0.19c-2.11,0.13-4.22,0.26-6.33,0.4
		c-0.57,0.08-1.14,0.17-1.71,0.25c-2.36,0.71-4.71,1.42-7.07,2.12c-0.29-0.03-0.59-0.05-0.88-0.08c-2.45,0.95-3.34,2.93-3.53,5.36
		c-0.01,0.19-0.02,0.38-0.03,0.57c-0.06,0.83-0.12,1.66-0.19,2.48c-0.01,0.13-0.02,0.26-0.03,0.4c0.02,2.06,0.03,4.11,0.06,6.17
		c0.01,0.73-0.39,0.54-0.81,0.42c-0.63-0.17-1.36-0.59-1.89-0.42c-3.23,1.07-1.48-1.34-1.71-2.36c-0.01-0.19-0.02-0.38-0.02-0.57
		v-0.39c0.02-0.38,0.04-0.76,0.06-1.14c0.01-0.89,0.03-1.79,0.04-2.68c-0.03-0.57-0.07-1.14-0.1-1.71c-0.03-0.51-0.07-1.03-0.1-1.54
		l-0.03-0.57c-0.28-0.63-0.56-1.26-0.85-1.88c-0.37-0.14-0.74-0.29-1.11-0.43c0.17,0.23,0.31,0.46,0.44,0.68
		c-0.13-0.22-0.27-0.45-0.44-0.68l-0.02-0.05l-0.05,0c-0.84,0.04-1.72,0.31-2.41-0.46c-0.19-0.03-0.38-0.05-0.56-0.08
		c-0.68,0.35-1.24,0.13-1.73-0.38c-0.32-0.05-0.64-0.1-0.96-0.15c-0.68,0.08-1.46,0.69-1.92-0.37c-0.12-0.02-0.25-0.03-0.37-0.05
		c-0.7,0.09-1.43,0.34-1.94-0.44c-0.19-0.03-0.37-0.07-0.56-0.1c-1.71,0.37-3.31,0.02-4.81-0.81c-2.11-0.16-4.22-0.33-6.34-0.49
		c-1.8,0.38-3.82,0.53-3.54,3.2c0.37,0.03,0.74,0.06,1.11,0.08c0.64,0.02,1.29,0.04,1.93,0.06c1.85,0,3.69,0,5.54,0.01
		c2.19-0.09,4.35,0.06,6.49,0.34c-2.14-0.28-4.3-0.43-6.49-0.34c0,0.1,0,0.2,0,0.31c4.47,0.34,8.94,0.6,13.31,1.75
		c1.19,0.31,1.7,0.86,1.71,2.09c0.07,5.64,0.93,11.34-1.49,16.75c0,0-0.03,0.06-0.03,0.06c-0.11,0.17-0.23,0.33-0.34,0.5
		c-0.05,0-0.09,0.01-0.14,0.04c-0.06,0.07-0.12,0.14-0.18,0.21c-0.02,0.05-0.03,0.09-0.02,0.14c-0.28,0.18-0.55,0.36-0.83,0.54
		c-0.3,0.15-0.6,0.3-0.89,0.44c-0.04,0.04-0.09,0.07-0.13,0.09c-0.21,0.09-0.41,0.18-0.62,0.27c-0.13,0.04-0.26,0.08-0.38,0.12
		c-0.14,0.02-0.28,0.04-0.42,0.06l0,0c-0.7,0.12-1.4,0.25-2.1,0.37c-0.26,0.01-0.52,0.01-0.78,0.02c-4.32,0.23-8.55,0.02-12.27-2.6
		l-0.04-0.04c-0.06-0.05-0.12-0.11-0.18-0.16c-0.05-0.02-0.09-0.05-0.13-0.09c-0.07,0.02-0.14,0.05-0.2,0.07v0
		c-0.03-0.06-0.05-0.12-0.07-0.18c0.04-0.03,0.07-0.07,0.11-0.1c-0.1-0.07-0.2-0.14-0.3-0.21v0c-0.45-0.62-0.9-1.25-1.35-1.87
		c-0.09,0.04-0.18,0.09-0.27,0.13c-2.51-3.82-2.47-8.41-3.84-12.58c-0.1,0.6-0.3,0.81-0.54,0.83c0.24-0.02,0.44-0.23,0.54-0.83
		c0.01-0.36,0.03-0.72,0.04-1.08c-0.36-1.56-0.72-3.11-1.08-4.67c-0.07,1.39-0.77,1.56-1.86,0.96c-0.06,0.07-0.12,0.15-0.17,0.22
		c0.07,1.32,0.14,2.65,0.21,3.97c0.12,0.4,0.25,0.8,0.37,1.2c0.01-0.03,0.03-0.05,0.05-0.07c-0.02,0.03-0.03,0.04-0.05,0.07
		c-0.05,0.05-0.07,0.1-0.07,0.17c0.04,0.19,0.07,0.39,0.11,0.58c0.06,0.31,0.12,0.63,0.18,0.94c0,0,0,0.01,0,0.01l0.15,0.78
		c0.02,0.11,0.05,0.23,0.07,0.34c0.01,0.09,0.03,0.17,0.04,0.26c0.03,0.12,0.06,0.24,0.09,0.36l0.11,0.42
		c0.08,0.25,0.15,0.5,0.23,0.74l0.06,0.36c0,0.19,0,0.37,0.01,0.56c0.11,0.64,0.21,1.29,0.32,1.93c0.02,0.06,0.04,0.13,0.06,0.19
		c0.06,0.06,0.12,0.12,0.18,0.17c0.87,3.12,2.43,5.81,4.97,7.88c0.05,0.16,0.11,0.32,0.16,0.48c0.34,0.28,0.68,0.55,1.01,0.83
		c0,0,0.06-0.02,0.06-0.02c0.05,0.05,0.1,0.1,0.15,0.15c0.05,0.03,0.1,0.07,0.14,0.1c0.07,0.04,0.14,0.08,0.21,0.12
		c0,0,0.03,0.01,0.03,0.01c0.17,0.08,0.34,0.16,0.51,0.24c0.07,0.06,0.13,0.12,0.2,0.18l0.42,0.16c0.07,0.04,0.13,0.08,0.2,0.12
		c0,0-0.02,0.07-0.02,0.07c0.11,0.03,0.23,0.05,0.34,0.08l0.62,0.31c0.06,0.02,0.13,0.05,0.19,0.07c0-0.07,0.03-0.11,0.1-0.13
		c0,0,0,0,0,0c0.02,0.05,0.01,0.1-0.03,0.14c0.07,0,0.13-0.01,0.2-0.01c0.34,0.12,0.69,0.24,1.03,0.36c0.25,0.07,0.51,0.14,0.76,0.2
		c1.8,0.3,3.6,0.6,5.4,0.9c1.07-0.05,2.14-0.1,3.21-0.14c0.21-0.03,0.42-0.05,0.63-0.08l0.32-0.07c0.21-0.05,0.42-0.1,0.63-0.15
		c0.11-0.02,0.23-0.04,0.34-0.06c0.51-0.09,1.01-0.18,1.52-0.27c0.21-0.02,0.41-0.04,0.62-0.07c0.56-0.08,1.05-0.29,1.55-0.55
		c0.82-0.42,1.65-0.93,2.02-1.8c1.24-0.98,1.54-2.6,2.43-3.82c0.04-0.14,0.07-0.28,0.11-0.42c0.04-0.08,0.07-0.16,0.11-0.25
		c0,0-0.02,0-0.02,0c0.88-0.89,1.6-2.05,2.65-2.63c3.6-1.97,4,0.77,4.47,3.26c0.02,0.12,0.05,0.25,0.07,0.37
		c0.05,0.13,0.1,0.27,0.14,0.4l0.21,0.57c0.71,0.89,1.41,1.77,2.12,2.66c0.06,0.06,0.13,0.12,0.19,0.18
		c0.07,0.06,0.14,0.12,0.21,0.18c0.16,0.09,0.32,0.19,0.48,0.28c0.12,0.09,0.25,0.18,0.37,0.27c0.11,0.05,0.22,0.11,0.32,0.16
		c0.05,0.03,0.09,0.05,0.13,0.09c0.07,0.04,0.15,0.09,0.22,0.13c0.05,0.02,0.1,0.04,0.15,0.07c0.18,0.07,0.36,0.15,0.54,0.22
		l0.01,0.01c1.47,0.45,2.95,0.9,4.42,1.35c0.11,0.02,0.22,0.04,0.33,0.06c0.71,0,1.42-0.01,2.13-0.01c0,0,0,0,0,0
		c0.2,0,0.4,0,0.61,0c0.05-0.05,0.11-0.06,0.17-0.01c0.51,0,1.02-0.01,1.53-0.01c0.64-0.87,1.55-0.28,2.32-0.44c0,0,0,0,0,0
		c1.28-0.64,2.57-1.27,3.85-1.91c0.12-0.07,0.23-0.14,0.35-0.21c0.82-0.71,1.63-1.43,2.45-2.14c0.03,0.02,0.05,0.05,0.08,0.07
		c0.25-0.19,0.5-0.38,0.76-0.57c0,0,0.02-0.01,0.02-0.01c0.06-0.06,0.11-0.12,0.17-0.18c0.11-0.15,0.23-0.29,0.34-0.44
		c0.11-0.14,0.22-0.27,0.33-0.41c0,0,0.01-0.02,0.01-0.02c0.04-0.06,0.09-0.13,0.13-0.19c0.03-0.05,0.07-0.09,0.1-0.14
		c0.03-0.17,0.07-0.35,0.1-0.52c0.04-0.06,0.09-0.12,0.13-0.17c0.15-0.16,0.31-0.32,0.46-0.47c2-2.68,3.45-5.58,3.73-8.97
		c0,0,0,0,0,0c0.18-0.22,0.36-0.45,0.54-0.67c0.12-0.66,0.24-1.31,0.37-1.97c-0.08-0.07-0.17-0.15-0.25-0.22
		c-0.12,0.51-0.23,1.01-0.35,1.52c0.12-0.51,0.23-1.01,0.35-1.52c0.02-0.13,0.04-0.27,0.05-0.4v0c0.07-0.2,0.13-0.39,0.2-0.59
		c0.12-0.34,0.24-0.68,0.36-1.02c0.01-0.05-0.01-0.09-0.05-0.11C85.18,46.19,85.22,44.89,85.26,43.6z M79.93,56.51
		c-0.22,0.52-0.67,0.94-1.02,1.4c0,0.07,0.01,0.14,0.01,0.2l0.03-0.02l0.02,0.49c-0.06,0-0.13,0-0.19,0.01
		c-0.13,0.2-0.26,0.39-0.39,0.59l0.01-0.01c-0.15,0.31-0.29,0.61-0.44,0.92c-0.06,0.07-0.11,0.14-0.17,0.2
		c-0.18,0.27-0.36,0.54-0.53,0.8c-0.07,0.06-0.13,0.13-0.2,0.19c-0.07,0.03-0.14,0.05-0.21,0.08l-2.34,2.54
		c0.56-0.33,1.11-0.67,1.68-0.99c-0.57,0.32-1.12,0.66-1.68,0.99c-0.05,0-0.1,0.02-0.14,0.06c-3.02,2.05-6.32,3.02-9.98,2.69
		c-0.75-0.23-1.5-0.47-2.25-0.7c-0.14-0.01-0.29-0.02-0.43-0.04c-0.49-0.12-0.99-0.23-1.48-0.35c-0.08-0.03-0.16-0.07-0.24-0.1
		c-0.04-0.02-0.06-0.05-0.04-0.09c-0.34-0.18-0.68-0.36-1.02-0.53c-1.34-0.75-2.51-1.62-2.31-3.42c-0.03-0.19-0.06-0.37-0.09-0.56
		c-0.22-0.9-0.44-1.8-0.66-2.69c-0.03-0.38-0.06-0.76-0.09-1.14l-0.11-1.35l0.01-5.35c0.32-2.89-1.63-6.87,3.56-7.42
		c0.19-0.03,0.37-0.06,0.56-0.08c0.68-0.12,1.35-0.25,2.03-0.37c0.02-0.06,0.02-0.12-0.01-0.18c3.88-1.18,7.87-1.65,11.92-1.77
		c0.05-0.03,0.09-0.04,0.15-0.02c0.15-0.07,0.31-0.15,0.46-0.22c0.39-0.03,0.78-0.05,1.17-0.08c1.55-0.07,3.14,0.03,4.66-0.24
		c2.18-0.39,2.28,0.67,2.25,2.39C82.35,47.23,81.84,51.99,79.93,56.51z"/>
</g>
</svg>
